<?xml version="1.0" encoding="utf-8"?>
<!-- Generator: Adobe Illustrator 16.0.0, SVG Export Plug-In . SVG Version: 6.00 Build 0)  -->
<!DOCTYPE svg PUBLIC "-//W3C//DTD SVG 1.1//EN" "http://www.w3.org/Graphics/SVG/1.1/DTD/svg11.dtd">
<svg version="1.1" id="Layer_1" xmlns="http://www.w3.org/2000/svg" xmlns:xlink="http://www.w3.org/1999/xlink" x="0px" y="0px"
	 width="482.552px" height="61.641px" viewBox="0 0 482.552 61.641" enable-background="new 0 0 482.552 61.641"
	 xml:space="preserve">
<g>
	<g>
		<g>
			<path fill="#008B8B" d="M143.63,22.241v33.745c0,4.01,2.416,5.465,6.076,5.465h7.018v-39.21H143.63z"/>
		</g>
		<g>
			<path fill="#008B8B" d="M82.246,22.241v33.745c0,4.01,2.416,5.465,6.078,5.465h7.017v-39.21H82.246z"/>
		</g>
		<path fill="#008B8B" d="M74.216,29.065v-6.825H44.099v33.745c0,4.01,2.418,5.465,6.08,5.465h24.038v-6.822H57.193v-9.699H72.96
			v-6.826H57.193v-9.038H74.216z"/>
		<g>
			<g>
				<path fill="#008B8B" d="M0,22.241v33.745c0,4.01,2.418,5.465,6.079,5.465h7.015v-39.21H0z"/>
			</g>
			<g>
				<g>
					<path fill="#008B8B" d="M18.279,36.285l-5.673,5.414l10.269,14.707l0,0c2.379,3.664,4.746,5.045,9.685,5.045h7.999
						L23.656,37.434L18.279,36.285z"/>
				</g>
				<g>
					<polygon fill="#008B8B" points="11.164,41.699 28.286,22.241 38.196,22.241 23.557,38.455 16.262,41.16 					"/>
				</g>
			</g>
		</g>
		<g>
			<path fill="#008B8B" d="M105.688,22.241h-5.298v7.333h12.547v26.412c0,4.01,2.416,5.465,6.077,5.465h7.019V38.558
				C126.033,32.753,121.083,22.241,105.688,22.241z"/>
			<path fill="#008B8B" d="M138.579,29.574v-7.333H120.85c2.22,2.197,3.957,4.691,5.183,7.343v-0.01H138.579z"/>
		</g>
	</g>
	<path fill="#8DC63F" d="M118.378,18.376C105.393-0.896,88.104-1.282,77.338,0.904C64.632,3.485,53.303,9.04,37.103,7.447
		c3.941,4.243,9.273,8.133,14.783,9.276c7.083,1.469,16.497-0.333,22.071-2.302c7.448-2.629,13.986-5.623,22.36-5.184
		C104.717,9.675,112.992,13.699,118.378,18.376z"/>
</g>
<g>
	<g>
		<rect x="201.954" y="22.588" fill="#008B8B" width="5.38" height="27.831"/>
		<rect x="205.147" y="31.243" fill="#008B8B" width="7.091" height="3.459"/>
		<rect x="186.729" y="22.233" fill="#008B8B" width="5.377" height="5.391"/>
		<rect x="179.704" y="26.146" fill="#008B8B" width="19.43" height="3.458"/>
		<path fill="#008B8B" d="M191.114,56.839v-8.423h-5.372v7.937c0,2.521,1.851,3.934,4.229,3.934h17.791v-3.447H191.114z"/>
		<path fill="#008B8B" d="M189.418,26.995c-5.029,0-9.108,4.012-9.108,8.973c0,4.955,4.079,8.977,9.108,8.977
			c5.031,0,9.109-4.021,9.109-8.977C198.527,31.007,194.449,26.995,189.418,26.995z M189.418,41.544
			c-2.053,0-3.719-2.542-3.719-5.673c0-3.13,1.666-5.663,3.719-5.663c2.056,0,3.726,2.533,3.726,5.663
			C193.144,39.002,191.474,41.544,189.418,41.544z"/>
	</g>
	<g>
		<path fill="#008B8B" d="M260.023,56.839v-6.314h-5.37v5.828c0,2.521,1.852,3.934,4.23,3.934h17.789v-3.447H260.023z"/>
		<rect x="270.866" y="22.588" fill="#008B8B" width="5.377" height="29.032"/>
		<path fill="#008B8B" d="M263.653,48.431h-15.037v-3.446h15.037c3.923,0,6.633-0.395,9.278-1.53v2.781
			C271.041,47.27,268.896,48.431,263.653,48.431z"/>
		<rect x="274.058" y="31.695" fill="#008B8B" width="7.063" height="3.447"/>
		<g>
			<rect x="255.937" y="22.233" fill="#008B8B" width="5.378" height="5.391"/>
			<rect x="248.911" y="26.146" fill="#008B8B" width="19.428" height="3.458"/>
			<rect x="255.935" y="40.609" fill="#008B8B" width="5.38" height="5.971"/>
			<path fill="#008B8B" d="M258.626,27.174c-4.799,0-8.688,3.5-8.688,7.826c0,4.319,3.889,7.818,8.688,7.818
				s8.685-3.499,8.685-7.818C267.311,30.674,263.425,27.174,258.626,27.174z M258.626,39.529c-2.032,0-3.687-2.148-3.687-4.795
				c0-2.653,1.654-4.8,3.687-4.8c2.035,0,3.691,2.147,3.691,4.8C262.317,37.38,260.661,39.529,258.626,39.529z"/>
		</g>
	</g>
	<g>
		<rect x="369.21" y="30.712" fill="#008B8B" width="7.092" height="3.458"/>
		<rect x="361.937" y="49.464" fill="#008B8B" width="14.643" height="3.458"/>
		<path fill="#008B8B" d="M364.2,56.829V45.012h-5.377v11.341c0,2.521,1.854,3.934,4.23,3.934h17.702v-3.458H364.2z"/>
		<rect x="375.376" y="22.588" fill="#008B8B" width="5.38" height="19.618"/>
		<rect x="375.376" y="45.012" fill="#008B8B" width="5.38" height="13.879"/>
		<path fill="#008B8B" d="M361.829,22.873c-5.208,0-9.434,4.276-9.434,9.554c0,5.267,4.226,9.544,9.434,9.544
			c5.218,0,9.444-4.277,9.444-9.544C371.273,27.149,367.047,22.873,361.829,22.873z M361.829,38.47
			c-2.237,0-4.055-2.703-4.055-6.043c0-3.351,1.817-6.053,4.055-6.053c2.244,0,4.063,2.703,4.063,6.053
			C365.893,35.767,364.073,38.47,361.829,38.47z"/>
	</g>
	<g>
		<path fill="#008B8B" d="M465.904,56.839v-6.318h-5.374v5.832c0,2.521,1.854,3.934,4.23,3.934h17.791v-3.447H465.904z"/>
		<rect x="460.55" y="41.671" fill="#008B8B" width="5.375" height="6.49"/>
		<rect x="452.96" y="40.515" fill="#008B8B" width="21.422" height="3.281"/>
		<rect x="476.748" y="22.588" fill="#008B8B" width="5.374" height="28.769"/>
		<rect x="469.626" y="45.687" fill="#008B8B" width="8.895" height="3.273"/>
		<path fill="#008B8B" d="M463.145,22.588c-4.936,0-8.934,3.671-8.934,8.204c0,4.523,3.998,8.194,8.934,8.194
			c4.932,0,8.937-3.671,8.937-8.194C472.081,26.26,468.076,22.588,463.145,22.588z M463.145,35.528
			c-2.133,0-3.861-2.124-3.861-4.735c0-2.622,1.729-4.746,3.861-4.746c2.134,0,3.862,2.125,3.862,4.746
			C467.007,33.404,465.278,35.528,463.145,35.528z"/>
	</g>
	<g>
		<rect x="226.484" y="39.47" fill="#008B8B" width="5.375" height="9.165"/>
		<g>
			<rect x="217.733" y="46.517" fill="#008B8B" width="23.584" height="3.453"/>
			<rect x="235.934" y="47.835" fill="#008B8B" width="5.383" height="12.451"/>
		</g>
		<rect x="214.068" y="37.201" fill="#008B8B" width="30.915" height="3.447"/>
		<g>
			<g>
				<polygon fill="#008B8B" points="240.965,26.985 217.824,26.985 217.824,23.536 241.23,23.536 				"/>
			</g>
			<path fill="#008B8B" d="M235.119,38.003c0.434-3.096,0.639-8.857,0.639-11.467l5.473-3c0,3.542-0.5,10.196-1.303,14.468H235.119z
				"/>
		</g>
	</g>
	<g>
		<rect x="339.372" y="22.588" fill="#008B8B" width="5.379" height="27.831"/>
		<rect x="342.567" y="31.243" fill="#008B8B" width="7.09" height="3.459"/>
		<path fill="#008B8B" d="M328.534,56.839v-9.166h-5.373v8.68c0,2.521,1.854,3.934,4.231,3.934h17.79v-3.447H328.534z"/>
		<g>
			<path fill="#008B8B" d="M324.188,23.559h5.881c-0.523,5.844-3.113,14.542-12.952,20.783l-2.167-2.215
				C320.734,37.517,323.548,31.262,324.188,23.559z"/>
			<polygon fill="#008B8B" points="325.203,34.75 334.381,43.882 337.388,40.158 326.525,32.134 			"/>
		</g>
	</g>
	<g>
		<rect x="408.766" y="22.588" fill="#008B8B" width="5.377" height="37.698"/>
		<g>
			<polygon fill="#008B8B" points="404.151,26.139 403.067,28.134 387.328,28.134 387.328,24.675 404.505,24.675 			"/>
			<path fill="#008B8B" d="M404.505,24.675c-0.715,9.469-3.795,18.451-16.778,24.561l-1.961-2.428
				c11.159-6.395,12.1-15.883,12.298-18.74"/>
		</g>
	</g>
	<g>
		<rect x="432.073" y="41.583" fill="#008B8B" width="5.381" height="6.488"/>
		<rect x="419.157" y="39.48" fill="#008B8B" width="31.215" height="3.281"/>
		<g>
			<rect x="423.276" y="45.48" fill="#008B8B" width="22.975" height="3.287"/>
			<rect x="423.276" y="51.292" fill="#008B8B" width="22.975" height="3.281"/>
			<rect x="440.872" y="45.521" fill="#008B8B" width="5.379" height="9.007"/>
			<path fill="#008B8B" d="M428.659,57.005v-4.881h-5.383v4.229c0,2.521,1.857,3.934,4.232,3.934h18.742v-3.281H428.659z"/>
		</g>
		<g>
			<g>
				<path fill="#008B8B" d="M432.84,22.588h6.06c-1.313,5.897-6.451,11.497-15.926,14.79l-2.164-2.215
					C428.854,31.751,431.866,26.541,432.84,22.588z"/>
				<polygon fill="#008B8B" points="433.897,29.323 445.636,37.393 448.541,33.579 435.522,26.828 				"/>
			</g>
		</g>
	</g>
	<g>
		<rect x="306.454" y="22.588" fill="#008B8B" width="5.378" height="21.312"/>
		<rect x="301.259" y="28.322" fill="#008B8B" width="6.111" height="3.447"/>
		<rect x="301.259" y="35.697" fill="#008B8B" width="6.111" height="3.445"/>
		<path fill="#008B8B" d="M301.204,44.326c-5.363,0-9.706,3.877-9.706,8.658s4.343,8.657,9.706,8.657
			c5.361,0,9.707-3.876,9.707-8.657S306.565,44.326,301.204,44.326z M301.204,58.136c-2.299,0-4.164-2.302-4.164-5.152
			c0-2.844,1.865-5.142,4.164-5.142c2.305,0,4.171,2.298,4.171,5.142C305.375,55.834,303.509,58.136,301.204,58.136z"/>
		<g>
			<polygon fill="#008B8B" points="300.7,24.816 296.554,26.982 284.66,26.982 284.66,23.536 301.255,23.536 			"/>
			<path fill="#008B8B" d="M294.921,26.667c-0.499,4.259-2.812,11.249-10.973,15.815l1.963,2.426
				c8.818-4.42,14.337-10.137,15.344-21.372l-3.585,1.307L294.921,26.667z"/>
		</g>
	</g>
</g>
</svg>
