<?xml version="1.0" encoding="utf-8"?>
<!-- Generator: Adobe Illustrator 16.0.0, SVG Export Plug-In . SVG Version: 6.00 Build 0)  -->
<!DOCTYPE svg PUBLIC "-//W3C//DTD SVG 1.1//EN" "http://www.w3.org/Graphics/SVG/1.1/DTD/svg11.dtd">
<svg version="1.1" id="Layer_1" xmlns="http://www.w3.org/2000/svg" xmlns:xlink="http://www.w3.org/1999/xlink" x="0px" y="0px"
	 width="22px" height="15px" viewBox="0 0 22 15" enable-background="new 0 0 22 15" xml:space="preserve">
<g>
	<defs>
		<rect id="SVGID_1_" x="0.95" width="20.365" height="15"/>
	</defs>
	<clipPath id="SVGID_2_">
		<use xlink:href="#SVGID_1_"  overflow="visible"/>
	</clipPath>
	<g clip-path="url(#SVGID_2_)">
		<path fill="#26779B" d="M17.473,12.576H4.798c-0.41,0-0.802-0.164-1.092-0.457c-0.29-0.291-0.452-0.688-0.452-1.101V1.581
			c0-0.414,0.162-0.81,0.452-1.103s0.682-0.458,1.092-0.46h12.674c0.41,0.001,0.803,0.167,1.092,0.46s0.452,0.689,0.452,1.103v9.438
			c0,0.413-0.163,0.81-0.452,1.101C18.274,12.412,17.882,12.576,17.473,12.576z M4.798,1.18c-0.1,0.001-0.195,0.042-0.265,0.114
			c-0.07,0.072-0.109,0.168-0.109,0.269V11c0,0.102,0.04,0.197,0.11,0.268s0.166,0.111,0.265,0.111h12.674
			c0.1,0,0.194-0.041,0.265-0.111s0.109-0.166,0.109-0.268V1.563c0-0.101-0.039-0.197-0.109-0.269
			c-0.069-0.072-0.165-0.113-0.265-0.114H4.798z"/>
		<path fill="#26779B" d="M21.314,13.82H0.95V15h20.365V13.82z"/>
	</g>
</g>
</svg>
