<?xml version="1.0" encoding="utf-8"?>
<!-- Generator: Adobe Illustrator 16.0.0, SVG Export Plug-In . SVG Version: 6.00 Build 0)  -->
<!DOCTYPE svg PUBLIC "-//W3C//DTD SVG 1.1//EN" "http://www.w3.org/Graphics/SVG/1.1/DTD/svg11.dtd">
<svg version="1.1" id="Layer_1" xmlns="http://www.w3.org/2000/svg" xmlns:xlink="http://www.w3.org/1999/xlink" x="0px" y="0px"
	 width="20px" height="15px" viewBox="0 0 20 15" enable-background="new 0 0 20 15" xml:space="preserve">
<g>
	<defs>
		<rect id="SVGID_1_" x="0.45" width="19.323" height="15"/>
	</defs>
	<clipPath id="SVGID_2_">
		<use xlink:href="#SVGID_1_"  overflow="visible"/>
	</clipPath>
	<g clip-path="url(#SVGID_2_)">
		<path fill="#26779B" d="M16.609,14.994H4.32v-0.52c-0.201-4.65,1.951-6.484,3.354-7.18C7.112,6.595,6.81,5.719,6.82,4.819
			c0.158-3.642,2.94-3.833,3.495-3.833h0.174c2.636,0,3.669,1.818,3.849,2.782c0.342,1.818-0.24,2.979-0.93,3.631
			c4.092,2.191,3.315,7.076,3.305,7.119L16.609,14.994z M5.369,13.898h10.295c0.081-1.227-0.055-4.566-3.621-5.887l-0.939-0.35
			L8.962,7.974C8.815,7.996,5.358,8.619,5.369,13.898z M10.261,2.092c-0.69,0-2.305,0.269-2.408,2.738c0,0,0,1.714,1.152,2.054
			l1.711,0.493l1.326-0.421c0.164-0.055,1.631-0.63,1.174-2.99c0-0.077-0.406-1.889-2.782-1.889h-0.174V2.092z"/>
		<path fill="#26779B" d="M4.868,13.439H0.612l-0.065-0.471c-0.587-4.146,1.696-5.954,3.109-6.66
			C3.31,5.965,3.044,5.548,2.879,5.087S2.652,4.135,2.7,3.647C2.944,0.685,5.08-0.027,6.216,0c0.603-0.009,1.195,0.154,1.709,0.471
			s0.928,0.775,1.193,1.32L8.151,2.289C7.978,1.93,7.708,1.627,7.371,1.416c-0.337-0.211-0.726-0.322-1.122-0.32H6.194
			c-0.223,0-2.174,0-2.418,2.667c-0.04,0.453,0.061,0.907,0.289,1.3c0.228,0.393,0.571,0.704,0.983,0.891l1.495,0.679L4.912,6.988
			c-0.158,0.033-3.756,0.915-3.37,5.368h3.299L4.868,13.439z"/>
		<path fill="#26779B" d="M19.615,13.439h-3.408v-1.096h2.451c0.391-4.479-3.213-5.334-3.375-5.367l-1.598-0.356l1.494-0.679
			c0.41-0.18,0.753-0.485,0.981-0.872c0.228-0.387,0.329-0.837,0.29-1.286c-0.233-2.738-2.332-2.689-2.418-2.689h-0.061
			c-0.396-0.003-0.784,0.108-1.12,0.319s-0.605,0.515-0.776,0.875l-0.968-0.498c0.265-0.546,0.679-1.004,1.192-1.322
			c0.514-0.317,1.107-0.48,1.711-0.469c1.125-0.027,3.26,0.685,3.516,3.669c0.049,0.484-0.014,0.974-0.18,1.431
			c-0.166,0.457-0.434,0.87-0.782,1.208c1.419,0.706,3.702,2.513,3.114,6.66L19.615,13.439z"/>
	</g>
</g>
</svg>
