<?xml version="1.0" encoding="utf-8"?>
<!-- Generator: Adobe Illustrator 16.0.0, SVG Export Plug-In . SVG Version: 6.00 Build 0)  -->
<!DOCTYPE svg PUBLIC "-//W3C//DTD SVG 1.1//EN" "http://www.w3.org/Graphics/SVG/1.1/DTD/svg11.dtd">
<svg version="1.1" id="Layer_1" xmlns="http://www.w3.org/2000/svg" xmlns:xlink="http://www.w3.org/1999/xlink" x="0px" y="0px"
	 width="21px" height="19px" viewBox="0 0 21 19" enable-background="new 0 0 21 19" xml:space="preserve">
<g>
	<defs>
		<rect id="SVGID_1_" x="0.401" width="20.07" height="19"/>
	</defs>
	<clipPath id="SVGID_2_">
		<use xlink:href="#SVGID_1_"  overflow="visible"/>
	</clipPath>
	<g clip-path="url(#SVGID_2_)">
		<path fill="#26779B" d="M10.318,6.599c-0.654,0-1.293-0.194-1.836-0.556C7.938,5.68,7.514,5.165,7.264,4.562
			c-0.25-0.603-0.315-1.267-0.188-1.906c0.127-0.64,0.442-1.228,0.905-1.689c0.462-0.461,1.051-0.775,1.692-0.903
			s1.306-0.062,1.91,0.188c0.604,0.25,1.12,0.673,1.483,1.215s0.557,1.18,0.557,1.833c-0.002,0.875-0.35,1.713-0.97,2.331
			C12.033,6.249,11.193,6.597,10.318,6.599z M10.318,1.178c-0.42,0-0.831,0.125-1.181,0.357S8.515,2.1,8.354,2.488
			C8.194,2.875,8.151,3.302,8.233,3.713c0.082,0.412,0.285,0.79,0.582,1.086c0.297,0.297,0.676,0.499,1.088,0.581
			s0.839,0.04,1.228-0.121c0.389-0.161,0.721-0.433,0.953-0.781c0.234-0.349,0.359-0.759,0.359-1.178c0-0.563-0.225-1.102-0.623-1.5
			C11.422,1.402,10.881,1.178,10.318,1.178z"/>
		<path fill="#26779B" d="M14.449,9.397H6.097L7.101,7.04c0.909-1.096,1.423-1.62,3.17-1.62c1.559,0,2.614,0.589,3.235,1.715
			L14.449,9.397z M7.862,8.218h4.817l-0.235-0.589c-0.254-0.459-0.75-1.042-2.173-1.042c-1.24,0-1.47,0.235-2.202,1.125L7.862,8.218
			z"/>
		<path fill="#26779B" d="M4.279,5.621h2.639V5.261H3.919v4.053h0.36V5.621z"/>
		<path fill="#26779B" d="M16.303,9.314h0.361V5.261h-3v0.359h2.639V9.314z"/>
		<path fill="#26779B" d="M12.148,17.475h-3.72v0.359h3.72V17.475z"/>
		<path fill="#26779B" d="M4.574,16.195c-0.654,0-1.293-0.193-1.836-0.556c-0.544-0.362-0.967-0.878-1.218-1.48
			c-0.25-0.603-0.315-1.267-0.188-1.906s0.442-1.228,0.905-1.689s1.051-0.775,1.692-0.903c0.642-0.127,1.306-0.062,1.91,0.188
			s1.12,0.673,1.483,1.215s0.557,1.181,0.557,1.833c0,0.875-0.348,1.714-0.968,2.333C6.292,15.848,5.451,16.195,4.574,16.195z
			 M4.574,10.781c-0.42,0-0.832,0.125-1.181,0.357c-0.35,0.234-0.622,0.565-0.783,0.953c-0.161,0.389-0.203,0.814-0.12,1.227
			c0.083,0.411,0.286,0.789,0.583,1.086s0.677,0.498,1.089,0.579s0.84,0.038,1.229-0.123s0.72-0.435,0.953-0.784
			c0.232-0.35,0.356-0.76,0.355-1.18c0-0.278-0.055-0.554-0.162-0.811c-0.107-0.258-0.264-0.49-0.461-0.688
			c-0.198-0.196-0.432-0.352-0.689-0.457C5.129,10.835,4.853,10.781,4.574,10.781z"/>
		<path fill="#26779B" d="M8.753,19H0.401l1.003-2.356c0.909-1.096,1.423-1.626,3.17-1.626c1.559,0,2.615,0.589,3.235,1.721
			L8.753,19z M2.166,17.822h4.817l-0.236-0.59c-0.248-0.459-0.75-1.049-2.172-1.049c-1.24,0-1.47,0.242-2.202,1.125L2.166,17.822z"
			/>
		<path fill="#26779B" d="M16.291,16.195c-0.653,0-1.293-0.193-1.836-0.556s-0.967-0.878-1.218-1.48
			c-0.25-0.603-0.315-1.267-0.188-1.906c0.128-0.64,0.443-1.228,0.905-1.689s1.052-0.775,1.692-0.903s1.307-0.062,1.91,0.188
			s1.12,0.673,1.483,1.215s0.558,1.181,0.558,1.833c0,0.875-0.349,1.714-0.969,2.333C18.01,15.848,17.168,16.195,16.291,16.195z
			 M16.291,10.781c-0.42,0-0.831,0.125-1.181,0.357c-0.35,0.234-0.622,0.565-0.782,0.953c-0.161,0.389-0.203,0.814-0.12,1.227
			c0.082,0.411,0.285,0.789,0.583,1.086s0.677,0.498,1.09,0.579c0.412,0.081,0.84,0.038,1.229-0.123
			c0.388-0.161,0.719-0.435,0.952-0.784c0.232-0.35,0.356-0.76,0.354-1.18c0-0.278-0.055-0.554-0.161-0.811
			c-0.106-0.258-0.264-0.49-0.461-0.688c-0.198-0.196-0.432-0.352-0.689-0.457C16.847,10.835,16.57,10.781,16.291,10.781z"/>
		<path fill="#26779B" d="M20.471,19h-8.353l1.003-2.356c0.91-1.096,1.424-1.626,3.17-1.626c1.559,0,2.615,0.589,3.235,1.721
			L20.471,19z M13.883,17.822h4.816l-0.235-0.59c-0.254-0.459-0.75-1.049-2.173-1.049c-1.239,0-1.469,0.242-2.201,1.125
			L13.883,17.822z"/>
	</g>
</g>
</svg>
