<?xml version="1.0" encoding="utf-8"?>
<!-- Generator: Adobe Illustrator 16.0.0, SVG Export Plug-In . SVG Version: 6.00 Build 0)  -->
<!DOCTYPE svg PUBLIC "-//W3C//DTD SVG 1.1//EN" "http://www.w3.org/Graphics/SVG/1.1/DTD/svg11.dtd">
<svg version="1.1" id="Layer_1" xmlns="http://www.w3.org/2000/svg" xmlns:xlink="http://www.w3.org/1999/xlink" x="0px" y="0px"
	 width="31px" height="30px" viewBox="0 0 31 30" enable-background="new 0 0 31 30" xml:space="preserve">
<ellipse fill="#C9E1E8" cx="15.222" cy="15" rx="15.053" ry="15"/>
<path fill="#FFFFFF" d="M12.403,11.836c-0.324-0.258-0.377-0.73-0.119-1.054c0.258-0.324,0.73-0.377,1.054-0.119L12.403,11.836z
	 M17.574,15l0.468-0.586L18.777,15l-0.735,0.586L17.574,15z M13.338,19.336c-0.324,0.259-0.796,0.205-1.054-0.119
	c-0.258-0.323-0.205-0.795,0.119-1.053L13.338,19.336z M13.338,10.664l4.704,3.75l-0.935,1.172l-4.705-3.75L13.338,10.664z
	 M18.042,15.586l-4.704,3.75l-0.935-1.172l4.705-3.75L18.042,15.586z"/>
</svg>
