<?xml version="1.0" encoding="utf-8"?>
<!-- Generator: Adobe Illustrator 16.0.0, SVG Export Plug-In . SVG Version: 6.00 Build 0)  -->
<!DOCTYPE svg PUBLIC "-//W3C//DTD SVG 1.1//EN" "http://www.w3.org/Graphics/SVG/1.1/DTD/svg11.dtd">
<svg version="1.1" id="Layer_1" xmlns="http://www.w3.org/2000/svg" xmlns:xlink="http://www.w3.org/1999/xlink" x="0px" y="0px"
	 width="46px" height="37px" viewBox="0 0 46 37" enable-background="new 0 0 46 37" xml:space="preserve">
<g>
	<defs>
		<rect id="SVGID_1_" width="46" height="37"/>
	</defs>
	<clipPath id="SVGID_2_">
		<use xlink:href="#SVGID_1_"  overflow="visible"/>
	</clipPath>
	<g clip-path="url(#SVGID_2_)">
		<path fill="#ABB8BC" d="M33.866,0.667C25.205-2.56,20.48,6.878,19.795,7.884C19.134,6.878,14.37-2.56,5.725,0.667
			c-9.347,3.502-6.134,18.924,1.575,26.933c6.96,7.2,11.52,9.093,12.37,9.423c0,0,5.598-2.199,12.598-9.423
			C39.992,19.592,43.205,4.169,33.866,0.667z"/>
		<path fill="#FFFFFF" d="M44.299,20.793c0,2.188-0.65,4.327-1.869,6.146c-1.219,1.82-2.952,3.238-4.979,4.075
			c-2.027,0.837-4.259,1.057-6.41,0.63c-2.152-0.428-4.129-1.48-5.682-3.028c-1.551-1.548-2.608-3.519-3.036-5.665
			c-0.428-2.146-0.208-4.371,0.631-6.392c0.84-2.022,2.262-3.75,4.086-4.965c1.824-1.216,3.97-1.865,6.164-1.865
			c2.942,0,5.764,1.166,7.845,3.241C43.131,15.044,44.299,17.858,44.299,20.793z"/>
		<path fill="#ABB8BC" d="M33.205,33.561c-2.533,0.002-5.009-0.746-7.115-2.148c-2.107-1.401-3.749-3.395-4.719-5.729
			c-0.97-2.332-1.225-4.899-0.732-7.377c0.493-2.477,1.712-4.753,3.502-6.539c1.791-1.787,4.072-3.003,6.556-3.497
			s5.059-0.241,7.398,0.725c2.34,0.966,4.34,2.603,5.747,4.703c1.407,2.1,2.158,4.568,2.158,7.094
			c-0.004,3.384-1.354,6.627-3.752,9.021S36.598,33.555,33.205,33.561L33.205,33.561z M33.205,11.425
			c-1.858-0.002-3.676,0.546-5.221,1.575c-1.547,1.028-2.752,2.491-3.464,4.203c-0.712,1.711-0.899,3.595-0.538,5.413
			c0.361,1.818,1.256,3.488,2.569,4.799s2.987,2.204,4.81,2.566c1.822,0.361,3.711,0.177,5.429-0.532
			c1.717-0.709,3.185-1.909,4.217-3.45s1.584-3.352,1.584-5.205c-0.003-2.482-0.991-4.863-2.751-6.619
			C38.08,12.418,35.694,11.429,33.205,11.425z"/>
		<path fill="#ABB8BC" d="M38.977,19.199H27.441v3.203h11.535V19.199z"/>
		<path fill="#ABB8BC" d="M34.811,15.045h-3.212v11.504h3.212V15.045z"/>
	</g>
</g>
</svg>
