<?xml version="1.0" encoding="utf-8"?>
<!-- Generator: Adobe Illustrator 16.0.0, SVG Export Plug-In . SVG Version: 6.00 Build 0)  -->
<!DOCTYPE svg PUBLIC "-//W3C//DTD SVG 1.1//EN" "http://www.w3.org/Graphics/SVG/1.1/DTD/svg11.dtd">
<svg version="1.1" id="Layer_1" xmlns="http://www.w3.org/2000/svg" xmlns:xlink="http://www.w3.org/1999/xlink" x="0px" y="0px"
	 width="39px" height="39px" viewBox="0 0 39 39" enable-background="new 0 0 39 39" xml:space="preserve">
<g>
	<defs>
		<rect id="SVGID_1_" width="39" height="39"/>
	</defs>
	<clipPath id="SVGID_2_">
		<use xlink:href="#SVGID_1_"  overflow="visible"/>
	</clipPath>
	<g clip-path="url(#SVGID_2_)">
		<path fill="#ABB8BC" d="M39,23.221v-7.433l-4.679-0.561c-0.315-1.111-0.755-2.182-1.312-3.194l2.908-3.694L30.662,3.09l-3.695,2.9
			c-1.012-0.557-2.083-0.997-3.193-1.312L23.212,0H15.78l-0.553,4.679c-1.111,0.315-2.182,0.755-3.194,1.312l-3.694-2.9L3.082,8.339
			l2.909,3.694c-0.556,1.013-0.999,2.084-1.321,3.194L0,15.788v7.433l4.67,0.553c0.323,1.111,0.766,2.186,1.321,3.202l-2.909,3.686
			l5.257,5.257l3.694-2.908c1.011,0.559,2.083,1.002,3.194,1.32L15.78,39h7.432l0.562-4.67c1.111-0.318,2.182-0.762,3.193-1.32
			l3.695,2.908l5.256-5.257l-2.908-3.694c0.557-1.012,0.996-2.083,1.312-3.193L39,23.221z M19.5,24.783
			c-1.045,0-2.066-0.311-2.935-0.891s-1.546-1.406-1.946-2.371c-0.399-0.965-0.504-2.027-0.3-3.052
			c0.204-1.024,0.707-1.966,1.445-2.705c0.739-0.739,1.68-1.242,2.705-1.446c1.025-0.204,2.087-0.1,3.052,0.3
			s1.791,1.077,2.371,1.946s0.891,1.89,0.891,2.935c0,0.693-0.137,1.381-0.402,2.021s-0.654,1.224-1.146,1.714
			c-0.49,0.491-1.073,0.88-1.714,1.146S20.193,24.783,19.5,24.783z"/>
	</g>
</g>
</svg>
