<?xml version="1.0" encoding="utf-8"?>
<!-- Generator: Adobe Illustrator 16.0.0, SVG Export Plug-In . SVG Version: 6.00 Build 0)  -->
<!DOCTYPE svg PUBLIC "-//W3C//DTD SVG 1.1//EN" "http://www.w3.org/Graphics/SVG/1.1/DTD/svg11.dtd">
<svg version="1.1" id="Layer_1" xmlns="http://www.w3.org/2000/svg" xmlns:xlink="http://www.w3.org/1999/xlink" x="0px" y="0px"
	 width="37px" height="41px" viewBox="0 0 37 41" enable-background="new 0 0 37 41" xml:space="preserve">
<g>
	<defs>
		<rect id="SVGID_1_" width="36.232" height="41"/>
	</defs>
	<clipPath id="SVGID_2_">
		<use xlink:href="#SVGID_1_"  overflow="visible"/>
	</clipPath>
	<g clip-path="url(#SVGID_2_)">
		<path fill="#484848" d="M27.684,30.616c-0.971,0.001-1.92-0.285-2.727-0.823c-0.809-0.538-1.438-1.304-1.81-2.2
			c-0.372-0.896-0.47-1.882-0.28-2.834s0.656-1.826,1.342-2.513c0.686-0.686,1.561-1.152,2.512-1.342
			c0.952-0.189,1.938-0.091,2.835,0.281c0.896,0.371,1.661,1.001,2.2,1.809c0.537,0.807,0.824,1.756,0.822,2.727
			c0,1.299-0.516,2.543-1.434,3.461C30.227,30.101,28.981,30.616,27.684,30.616z M27.684,22.245
			c-0.688-0.001-1.361,0.201-1.934,0.582c-0.572,0.382-1.02,0.923-1.283,1.558c-0.264,0.636-0.334,1.335-0.201,2.01
			c0.134,0.674,0.465,1.295,0.95,1.781s1.104,0.818,1.779,0.953s1.374,0.066,2.009-0.197c0.636-0.263,1.18-0.707,1.562-1.279
			s0.586-1.244,0.586-1.932c0.004-0.459-0.083-0.912-0.255-1.338c-0.174-0.424-0.428-0.811-0.75-1.136s-0.706-0.585-1.129-0.761
			c-0.423-0.178-0.877-0.27-1.334-0.27V22.245z"/>
		<path fill="#484848" d="M35.483,41H19.883c-0.182,0-0.355-0.068-0.488-0.191s-0.213-0.292-0.226-0.473
			c0-0.35-0.036-0.713-0.036-1.07c0-3.568,1.285-6.994,3.44-9.127c0.133-0.129,0.312-0.201,0.496-0.201s0.362,0.072,0.496,0.201
			c1.116,1.045,2.589,1.627,4.118,1.627s3.001-0.582,4.117-1.627c0.133-0.127,0.309-0.197,0.492-0.197s0.359,0.07,0.492,0.197
			c2.142,2.141,3.447,5.545,3.447,9.127c0,0.364,0,0.714,0,1.07c-0.013,0.188-0.098,0.361-0.238,0.486
			C35.854,40.945,35.67,41.01,35.483,41z M20.561,39.572h14.273c0-0.1,0-0.199,0-0.307c0.057-2.77-0.855-5.473-2.576-7.644
			c-1.303,1.005-2.901,1.55-4.547,1.55c-1.645,0-3.243-0.545-4.545-1.55c-1.725,2.169-2.637,4.874-2.576,7.644L20.561,39.572z"/>
		<path fill="#484848" d="M5.809,39.809c-0.768,0.006-1.528-0.143-2.238-0.436s-1.353-0.725-1.893-1.27s-0.965-1.193-1.251-1.905
			c-0.286-0.712-0.426-1.476-0.413-2.242c0-10.148,0-19.34,0-28.111c-0.024-0.743,0.1-1.484,0.364-2.18
			C0.642,2.97,1.041,2.333,1.551,1.793c0.511-0.541,1.124-0.975,1.803-1.278c0.679-0.303,1.412-0.468,2.155-0.487
			c6.016,0,12.425,0,20.154,0c1.474,0.011,2.884,0.607,3.919,1.656s1.613,2.465,1.605,3.939c-0.036,2.341,0,4.731,0,7.044
			c0,1.006,0,2.013,0,3.012c0,0.189-0.076,0.371-0.209,0.504c-0.135,0.134-0.316,0.209-0.505,0.209
			c-0.189,0-0.371-0.075-0.505-0.209s-0.209-0.315-0.209-0.504c0-0.999,0-2.005,0-3.012c0-2.313-0.035-4.71,0-7.073
			c0.003-1.09-0.426-2.136-1.191-2.912c-0.378-0.388-0.83-0.698-1.328-0.91c-0.499-0.212-1.035-0.323-1.577-0.325
			c-7.729,0-14.13,0-20.146,0C4.96,1.468,4.412,1.597,3.906,1.829C3.399,2.061,2.943,2.39,2.564,2.799S1.892,3.687,1.699,4.209
			c-0.193,0.523-0.28,1.079-0.257,1.635c0,8.764,0,17.956,0,28.104c-0.007,0.598,0.105,1.19,0.333,1.744
			C2,36.246,2.337,36.747,2.762,37.168c0.428,0.404,0.932,0.72,1.484,0.926c0.552,0.205,1.139,0.299,1.728,0.273
			c1.478-0.058,2.976-0.051,4.425-0.051h1.941c0.189,0,0.371,0.075,0.504,0.209s0.209,0.315,0.209,0.505
			c0,0.188-0.075,0.37-0.209,0.505c-0.134,0.133-0.315,0.209-0.504,0.209h-1.948c-1.428,0-2.919,0-4.368,0.05L5.809,39.809z"/>
		<path fill="#484848" d="M20.66,11.19H6.815c-0.2,0-0.393,0-0.592,0H5.966c-0.189,0-0.371-0.075-0.505-0.209
			s-0.209-0.315-0.209-0.505c0.005-0.094,0.028-0.186,0.068-0.271s0.097-0.161,0.166-0.224c0.07-0.063,0.151-0.112,0.24-0.143
			c0.088-0.032,0.182-0.045,0.276-0.041H6.28h0.5h17.306c0.189,0,0.371,0.075,0.505,0.209s0.209,0.315,0.209,0.505
			c0,0.189-0.075,0.371-0.209,0.504s-0.315,0.209-0.505,0.209L20.66,11.19z"/>
		<path fill="#484848" d="M24.121,17.691H6.815c-0.2,0-0.407,0-0.606,0H5.966c-0.094-0.005-0.186-0.028-0.271-0.068
			s-0.161-0.097-0.224-0.167c-0.063-0.069-0.112-0.15-0.143-0.239c-0.032-0.088-0.045-0.182-0.041-0.275
			c0.005-0.094,0.028-0.186,0.068-0.271c0.04-0.085,0.097-0.161,0.166-0.224c0.07-0.063,0.151-0.111,0.239-0.143
			c0.088-0.031,0.182-0.045,0.276-0.041h0.264h0.514h17.306c0.189,0,0.371,0.075,0.506,0.209c0.133,0.134,0.209,0.315,0.209,0.504
			c0,0.189-0.076,0.371-0.209,0.505C24.492,17.616,24.311,17.691,24.121,17.691z"/>
		<path fill="#484848" d="M12.339,24.193c-2.141,0-4.239,0-6.345-0.051c-0.189,0-0.371-0.074-0.504-0.209
			c-0.134-0.133-0.209-0.314-0.209-0.504s0.075-0.371,0.209-0.505s0.315-0.209,0.504-0.209c4.196,0.064,8.45,0.064,12.646,0
			c0.189,0,0.371,0.075,0.504,0.209s0.209,0.315,0.209,0.505s-0.075,0.371-0.209,0.504c-0.134,0.135-0.315,0.209-0.504,0.209
			C16.562,24.177,14.461,24.193,12.339,24.193z"/>
	</g>
</g>
</svg>
