<svg width="82" height="146" viewBox="0 0 82 146" fill="none" xmlns="http://www.w3.org/2000/svg">
<g clip-path="url(#clip0_322:8828)">
<path d="M73.5871 30.3211C73.5638 30.4411 73.5644 30.5646 73.5889 30.6843C73.6134 30.8041 73.6612 30.9179 73.7297 31.0192C73.7982 31.1205 73.886 31.2073 73.988 31.2747C74.0901 31.3421 74.2044 31.3887 74.3245 31.412C74.8097 31.5138 75.2949 30.806 75.3871 30.3017L76.1439 26.4231C76.1672 26.3031 76.1666 26.1797 76.1421 26.0599C76.1176 25.9402 76.0698 25.8264 76.0013 25.7251C75.9328 25.6238 75.845 25.537 75.743 25.4696C75.6409 25.4022 75.5266 25.3555 75.4065 25.3323C74.9213 25.2353 74.4361 25.9383 74.3439 26.4425L73.5871 30.3211Z" fill="#FFD3C6"/>
<path d="M76.0954 27.398C75.8952 27.5411 75.7599 27.7576 75.719 28.0002C75.6781 28.2427 75.7349 28.4916 75.8771 28.6925C75.948 28.7922 76.038 28.8769 76.1418 28.9419C76.2456 29.0068 76.3612 29.0507 76.4819 29.071C76.6027 29.0912 76.7263 29.0875 76.8456 29.06C76.9649 29.0325 77.0777 28.9817 77.1774 28.9106L80.4135 26.598C80.614 26.454 80.7494 26.2366 80.7903 25.9933C80.8312 25.7499 80.7742 25.5003 80.6318 25.2987C80.4869 25.0977 80.268 24.9624 80.0234 24.9224C79.7787 24.8824 79.5282 24.941 79.3267 25.0854L76.0954 27.398Z" fill="#FFD3C6"/>
<path d="M76.6922 29.0509C76.4917 29.195 76.3563 29.4124 76.3154 29.6557C76.2745 29.899 76.3315 30.1487 76.4739 30.3503C76.5452 30.4496 76.6355 30.5339 76.7394 30.5984C76.8434 30.6629 76.9591 30.7063 77.0798 30.7261C77.2006 30.7459 77.324 30.7418 77.4432 30.7139C77.5623 30.686 77.6748 30.6349 77.7742 30.5636L81.0103 28.2558C81.2108 28.1118 81.3462 27.8944 81.3871 27.6511C81.428 27.4077 81.371 27.1581 81.2286 26.9565C81.1573 26.8572 81.0671 26.7728 80.9631 26.7083C80.8591 26.6439 80.7435 26.6005 80.6227 26.5807C80.502 26.5609 80.3785 26.565 80.2594 26.5929C80.1402 26.6208 80.0278 26.6718 79.9284 26.7432L76.6922 29.0509Z" fill="#FFD3C6"/>
<path d="M77.2938 30.7041C77.0926 30.8474 76.9562 31.0644 76.9144 31.3078C76.8726 31.5512 76.9287 31.8013 77.0707 32.0034C77.2148 32.2038 77.4323 32.3391 77.6759 32.38C77.9194 32.4208 78.1692 32.3639 78.3709 32.2216L81.6119 29.909C81.8116 29.7642 81.9461 29.5465 81.9861 29.3032C82.026 29.0599 81.9683 28.8107 81.8254 28.6097C81.7529 28.5087 81.6608 28.4233 81.5547 28.3584C81.4486 28.2936 81.3305 28.2506 81.2075 28.2321C81.0845 28.2135 80.9591 28.2198 80.8385 28.2505C80.718 28.2813 80.6048 28.3358 80.5057 28.4109L77.2938 30.7041Z" fill="#FFD3C6"/>
<path d="M72.4225 34.0156C72.3099 34.3492 72.2642 34.7017 72.2882 35.053C72.3121 35.4042 72.4051 35.7473 72.562 36.0626C72.7188 36.3778 72.9364 36.6591 73.2022 36.8902C73.468 37.1213 73.7768 37.2977 74.111 37.4093C75.5131 37.8942 77.022 36.75 77.4733 35.3488L78.759 31.5187C78.9854 30.8456 78.9352 30.1102 78.6196 29.4739C78.304 28.8376 77.7486 28.3525 77.0754 28.1249C75.6684 27.6401 74.1643 28.7843 73.7131 30.1855L72.4225 34.0156Z" fill="#FFD3C6"/>
<path d="M50.6138 75.875H37.0627V99.4326H50.6138V75.875Z" fill="white"/>
<path d="M16.6368 115.345C14.6233 118.865 10.1402 126.166 9.00977 128.765L14.2497 132.643L23.2158 120.295" fill="#F3D5BD"/>
<path d="M15.2831 129.719L16.3844 136.391L14.5359 135.615L10.4556 132.114L9.74719 127.479L15.2831 129.719Z" fill="#F3D5BD"/>
<path d="M17.4616 142.383C19.4897 139.295 16.4913 135.78 16.4913 135.78C15.5209 136.876 13.2017 133.782 12.6923 133.133C11.1543 131.193 10.1451 128.284 9.74727 127.232C9.05523 127.791 8.43586 128.435 7.90359 129.147C7.5543 129.593 7.26403 130.082 7.03998 130.602L4.72083 135.591L6.07447 136.41C6.07447 136.41 7.95211 133.564 8.73325 134.088C9.39794 134.539 10.3101 138.689 10.7953 139.077C11.6928 139.814 15.5112 142.054 16.9376 142.873L17.4616 142.383Z" fill="#454647"/>
<path d="M26.1317 99.2386C19.7273 110.002 16.103 114.108 13.7014 118.559L21.6244 123.378L38.2126 106.06C38.2126 106.06 39.7409 105.658 39.7409 98.1865" fill="#2FA1BC"/>
<path d="M26.1317 99.2386C19.7273 110.002 16.103 114.108 13.7014 118.559L22.3716 123.751L37.8439 106.429C37.8439 106.429 39.3674 105.658 39.3674 98.1865" fill="url(#paint0_radial_322:8828)"/>
<path d="M39.1248 8.95464C39.1271 8.74416 39.1174 8.53374 39.0957 8.32437C38.7367 5.18271 35.5539 2.9622 31.983 3.36945C27.335 3.89791 25.9765 8.63465 26.3598 12.6151C26.7285 16.4597 27.2137 19.9892 26.2821 23.8387C25.6294 26.4754 24.3058 28.8988 22.4395 30.8736C22.3522 30.9657 25.5059 30.9172 25.5689 30.9172C28.48 30.9172 33.3318 28.3864 35.0542 25.1429C38.2224 19.199 38.3825 15.3883 38.9356 14.0744C39.5877 12.4176 39.9011 10.6471 39.8574 8.86737L39.1248 8.95464Z" fill="#064182"/>
<path d="M45.9609 122.879C46.2812 126.869 46.7033 135.3 47.2273 138.064L54.1896 138.335L54.4419 123.674" fill="#F3D5BD"/>
<path d="M53.0591 135.658L57.809 140.71L55.81 141.001L50.3712 140.143L47.1205 136.613L53.0591 135.658Z" fill="#F3D5BD"/>
<path d="M62.1514 145.195C62.0835 141.564 57.5422 140.148 57.5422 140.148C57.353 141.564 53.6316 140.148 52.8311 139.867C50.4052 139.019 47.9114 137.094 46.975 136.41C46.7226 137.235 46.5775 138.089 46.5432 138.951C46.5092 139.509 46.545 140.069 46.6499 140.618L47.5621 145.995H49.168C49.168 145.995 49.1146 142.64 50.0753 142.684C50.8855 142.723 54.0343 145.748 54.6651 145.825C55.8441 145.985 60.3368 145.913 62.001 145.879L62.1514 145.195Z" fill="#454647"/>
<path d="M39.5469 100.484L40.7841 77.7752C41.4149 77.1304 42.3513 77.751 42.3513 77.751C42.4289 87.2535 45.34 126.384 45.34 126.384H54.8349L58.333 67.1964C58.333 67.1964 26.4956 63.9432 24.3997 68.1224C24.3997 68.1224 24.5161 92.6933 25.8018 112.959" fill="#2FA1BC"/>
<path d="M66.6732 48.07L61.0985 28.7546C60.5992 27.0097 59.4267 25.5345 57.839 24.6534C56.2512 23.7724 54.3783 23.5577 52.6321 24.0566C50.886 24.5555 49.4097 25.7272 48.528 27.3138C47.6463 28.9003 47.4315 30.7719 47.9307 32.5168L52.2973 43.6678L53.7529 43.2605L55.2763 50.4699C55.598 51.9807 56.5072 53.302 57.8037 54.143C59.1003 54.9841 60.6782 55.2759 62.1901 54.9545C63.7021 54.633 65.0243 53.7245 65.866 52.4289C66.7076 51.1332 66.9997 49.5566 66.678 48.0457L66.6732 48.07Z" fill="white"/>
<path d="M66.6732 48.07L61.0985 28.7546C60.5992 27.0097 59.4267 25.5345 57.839 24.6534C56.2512 23.7724 54.3783 23.5577 52.6321 24.0566C50.886 24.5555 49.4097 25.7272 48.528 27.3138C47.6463 28.9003 47.4315 30.7719 47.9307 32.5168L52.2973 43.6678L53.7529 43.2605L55.2763 50.4699C55.598 51.9807 56.5072 53.302 57.8037 54.143C59.1003 54.9841 60.6782 55.2759 62.1901 54.9545C63.7021 54.633 65.0243 53.7245 65.866 52.4289C66.7076 51.1332 66.9997 49.5566 66.678 48.0457L66.6732 48.07Z" fill="#EBF7F8"/>
<path d="M62.36 59.7541C62.36 59.7541 68.6334 63.8993 72.5488 55.8755L81.0394 34.9504L72.4615 31.0137L58.8765 52.4865C58.8765 52.4865 59.7546 58.2511 62.36 59.7541Z" fill="white"/>
<path d="M62.36 59.7541C62.36 59.7541 68.6334 63.8993 72.5488 55.8755L81.0394 34.9504L72.4615 31.0137L58.8765 52.4865C58.8765 52.4865 59.7546 58.2511 62.36 59.7541Z" fill="#EBF7F8"/>
<path d="M55.2764 24.3531C55.2764 24.3531 61.0985 32.5951 60.0845 39.9305L55.8198 67.0321L27.3107 66.4843L22.7694 33.0654L24.2541 23.1943L55.2764 24.3531Z" fill="#00BFA4"/>
<path d="M28.116 55.4251L24.4432 71.3758H57.6683L54.8494 53.6797L28.116 55.4251Z" fill="#00BFA4"/>
<path d="M49.9055 24.5568C49.8667 27.0584 47.3147 29.0511 44.947 29.0171C42.5793 28.9784 39.8575 28.0039 39.8963 25.4973L40.8181 18.2249C40.8052 17.0539 41.2577 15.9256 42.0763 15.0875C42.8949 14.2495 44.0129 13.7702 45.1847 13.7549C46.3539 13.8065 47.4548 14.3193 48.2461 15.1809C49.0374 16.0426 49.4544 17.1826 49.4058 18.351L49.9055 24.5568Z" fill="#F3D5BD"/>
<path d="M49.9055 24.5568C49.8667 27.0584 47.3147 29.0511 44.947 29.0171C42.5793 28.9784 39.8575 28.0039 39.8963 25.4973L40.8181 18.2249C40.8052 17.0539 41.2577 15.9256 42.0763 15.0875C42.8949 14.2495 44.0129 13.7702 45.1847 13.7549C46.3539 13.8065 47.4548 14.3193 48.2461 15.1809C49.0374 16.0426 49.4544 17.1826 49.4058 18.351L49.9055 24.5568Z" fill="#FFC9B6"/>
<path d="M46.7032 3.01991C44.5345 3.57746 41.8175 5.4101 39.5371 5.99674C39.052 6.11794 38.0331 10.845 37.5576 10.845C37.6344 11.5601 37.7856 12.2653 38.0088 12.9491C39.6293 17.9089 44.6315 20.9778 49.1922 19.8094C53.7529 18.6409 56.1303 13.6763 54.5292 8.71659C54.0825 7.3589 53.3682 6.10439 52.4283 5.02709C51.6521 6.19551 48.217 2.63205 46.7032 3.01991Z" fill="#FFD3C6"/>
<path d="M40.8423 5.8469C41.0218 7.23349 45.3642 8.1789 46.451 8.08678C48.913 7.88843 51.3412 7.38687 53.6801 6.59351C51.885 -0.0825164 46.0434 -0.722483 42.7248 0.504122C35.6946 3.10763 35.3938 8.55705 36.7717 11.9848C37.2568 11.9702 41.4633 10.6612 40.8423 5.8469Z" fill="#064182"/>
<path d="M46.9653 12.596C47.0001 12.7111 46.9999 12.834 46.9647 12.949C46.9294 13.0639 46.8607 13.1659 46.7674 13.2417C46.674 13.3176 46.5601 13.364 46.4403 13.375C46.3204 13.386 46.2 13.3611 46.0944 13.3035C45.9887 13.2459 45.9026 13.1582 45.847 13.0516C45.7914 12.9449 45.7688 12.8242 45.782 12.7047C45.7953 12.5851 45.8438 12.4723 45.9215 12.3804C45.9992 12.2885 46.1024 12.2218 46.2181 12.1888C46.2939 12.1658 46.3736 12.1581 46.4524 12.1662C46.5312 12.1743 46.6076 12.198 46.6771 12.2359C46.7467 12.2738 46.808 12.3252 46.8574 12.387C46.9069 12.4488 46.9436 12.5199 46.9653 12.596Z" fill="#064182"/>
<path d="M50.769 11.1608C50.8016 11.275 50.7997 11.3963 50.7634 11.5094C50.7271 11.6224 50.6581 11.7223 50.5651 11.7962C50.4722 11.8701 50.3593 11.9149 50.2409 11.9249C50.1225 11.9348 50.0038 11.9095 49.8998 11.8521C49.7957 11.7947 49.711 11.7079 49.6563 11.6024C49.6017 11.497 49.5795 11.3778 49.5925 11.2597C49.6056 11.1417 49.6533 11.0302 49.7297 10.9393C49.8061 10.8483 49.9078 10.782 50.0218 10.7487C50.098 10.7265 50.1778 10.7195 50.2566 10.7282C50.3354 10.737 50.4118 10.7612 50.4812 10.7995C50.5507 10.8378 50.6118 10.8894 50.6612 10.9514C50.7106 11.0134 50.7473 11.0846 50.769 11.1608Z" fill="#064182"/>
<path d="M40.5512 13.8662C40.7143 14.4124 40.7115 14.9947 40.5432 15.5393C40.3748 16.0839 40.0485 16.5664 39.6056 16.9256C39.1627 17.2848 38.623 17.5045 38.055 17.5571C37.487 17.6096 36.9162 17.4924 36.4148 17.2205C35.9135 16.9486 35.5041 16.5342 35.2387 16.0296C34.9732 15.5251 34.8636 14.9532 34.9236 14.3863C34.9836 13.8195 35.2107 13.2832 35.5759 12.8454C35.9412 12.4075 36.4283 12.0879 36.9755 11.9269C37.707 11.7116 38.4941 11.7949 39.1643 12.1583C39.8345 12.5218 40.3332 13.1359 40.5512 13.8662Z" fill="#FFD3C6"/>
<path d="M52.2003 23.7365L33.7635 23.2178C33.7635 23.2178 39.9447 28.1727 45.8542 33.8839C45.8445 33.8985 51.5065 29.0357 52.2003 23.7365Z" fill="#FFC9B6"/>
<path d="M49.1194 9.98717C49.3328 9.73079 49.633 9.56156 49.9629 9.51152C50.2929 9.46148 50.6298 9.53411 50.9097 9.71567" stroke="#064182" stroke-width="1.23" stroke-linecap="round" stroke-linejoin="round"/>
<path d="M44.253 12.3428C44.3038 12.0131 44.4739 11.7134 44.7309 11.5005C44.9879 11.2876 45.3141 11.1763 45.6476 11.1877" stroke="#064182" stroke-width="1.23" stroke-linecap="round" stroke-linejoin="round"/>
<path d="M47.1836 14.9087C47.4941 15.9122 48.3965 16.5231 49.1971 16.2758C49.9976 16.0286 50.3955 15.0153 50.085 14.0117L47.1836 14.9087Z" fill="#ED6B7B"/>
<path d="M51.0845 23.6543L56.7319 24.047C56.7319 24.047 61.6371 33.0114 61.1471 41.1468L60.7541 101.396H53.6074L53.7918 37.433C53.7918 31.7654 52.0257 26.3402 51.0845 23.6543Z" fill="#EBF7F8"/>
<path d="M22.5075 22.9561L35.9372 22.5586V101.134L22.8762 101.086L20.5425 37.3263L22.5075 22.9561Z" fill="white"/>
<path d="M22.5075 22.9561L35.9372 22.5586V101.134L22.8762 101.086L20.5425 37.3263L22.5075 22.9561Z" fill="#EBF7F8"/>
<path d="M36.3705 47.7597L0.0290527 58.7861L7.91021 84.7234L44.2517 73.697L36.3705 47.7597Z" fill="#6070CC"/>
<path d="M25.1954 23.1993C21.5614 22.06 18.3592 24.5811 17.2239 28.2076L8.30631 49.6077C7.82394 51.1694 7.98065 52.8585 8.74212 54.305C9.50359 55.7514 10.8077 56.8374 12.3689 57.3249C13.93 57.8124 15.6209 57.6617 17.071 56.9059C18.5212 56.15 19.6125 54.8507 20.1058 53.2924L29.7269 31.805C30.2657 30.0633 30.0912 28.1792 29.2417 26.5659C28.3921 24.9527 26.937 23.7419 25.1954 23.1993Z" fill="#EBF7F8"/>
<path d="M25.5059 72.8841C25.3942 72.8138 25.2697 72.7664 25.1396 72.7444C25.0095 72.7225 24.8763 72.7265 24.7478 72.7562C24.6192 72.786 24.4978 72.8409 24.3906 72.9177C24.2834 72.9946 24.1925 73.0919 24.1231 73.2041C24.0524 73.3157 24.0045 73.4402 23.9822 73.5704C23.9598 73.7007 23.9633 73.834 23.9926 73.9628C24.0219 74.0916 24.0764 74.2134 24.1529 74.3212C24.2294 74.4289 24.3264 74.5205 24.4385 74.5907L28.0773 76.8548C28.3026 76.9958 28.5747 77.0419 28.8339 76.9828C29.0931 76.9237 29.3182 76.7644 29.4601 76.5397C29.6015 76.3138 29.6477 76.0412 29.5886 75.7814C29.5295 75.5216 29.3699 75.2957 29.1447 75.1531L25.5059 72.8841Z" fill="#FFD3C6"/>
<path d="M26.4083 77.9398C26.2606 78.1624 26.2073 78.4344 26.2601 78.6961C26.3129 78.9579 26.4673 79.188 26.6897 79.3361C26.911 79.4839 27.182 79.5378 27.4431 79.486C27.7042 79.4341 27.9341 79.2809 28.0821 79.0598L29.3533 76.7763C29.4997 76.5534 29.5522 76.2818 29.4995 76.0204C29.4469 75.759 29.2932 75.5289 29.0719 75.38C28.8505 75.2322 28.5795 75.1783 28.3184 75.2302C28.0573 75.282 27.8275 75.4353 27.6794 75.6563L26.4083 77.9398Z" fill="#FFD3C6"/>
<path d="M27.5727 76.6067C27.5366 76.4684 27.4735 76.3386 27.3871 76.2248C27.3007 76.1109 27.1927 76.0152 27.0692 75.9431C26.9457 75.8711 26.8091 75.824 26.6674 75.8048C26.5257 75.7856 26.3816 75.7945 26.2433 75.831C25.9649 75.9039 25.7268 76.0843 25.5813 76.3324C25.4358 76.5805 25.3947 76.8762 25.467 77.1546L26.1657 80.2865C26.2388 80.5649 26.419 80.8032 26.6671 80.9494C26.9152 81.0956 27.2111 81.1379 27.4902 81.0671C27.7703 80.993 28.0096 80.8112 28.156 80.5614C28.3023 80.3116 28.3438 80.0141 28.2714 79.7338L27.5727 76.6067Z" fill="#FFD3C6"/>
<path d="M25.5156 76.568C25.4425 76.2896 25.2623 76.0514 25.0142 75.9052C24.7661 75.7589 24.4702 75.7166 24.1911 75.7874C24.0529 75.823 23.9231 75.8855 23.8092 75.9714C23.6952 76.0573 23.5994 76.1648 23.5273 76.2878C23.4551 76.4109 23.408 76.5469 23.3887 76.6882C23.3694 76.8295 23.3783 76.9732 23.4148 77.111L24.094 80.2624C24.1301 80.4007 24.1932 80.5305 24.2796 80.6443C24.366 80.7582 24.4741 80.8539 24.5976 80.926C24.7211 80.9981 24.8576 81.045 24.9993 81.0643C25.141 81.0835 25.2851 81.0746 25.4234 81.0381C25.7018 80.9652 25.9399 80.7849 26.0854 80.5367C26.231 80.2886 26.2721 79.9929 26.1997 79.7145L25.5156 76.568Z" fill="#FFD3C6"/>
<path d="M23.4632 76.5292C23.4276 76.3905 23.3649 76.2602 23.2788 76.1458C23.1926 76.0314 23.0846 75.9351 22.961 75.8626C22.8375 75.79 22.7008 75.7426 22.5588 75.7231C22.4169 75.7035 22.2724 75.7122 22.1338 75.7487C21.8551 75.8227 21.6169 76.0039 21.4715 76.2528C21.326 76.5017 21.2851 76.7981 21.3575 77.0771L22.0417 80.2236C22.1146 80.5018 22.2951 80.7397 22.5434 80.8851C22.7917 81.0305 23.0876 81.0716 23.3662 80.9993C23.5044 80.9637 23.6342 80.9012 23.7481 80.8154C23.862 80.7295 23.9578 80.6219 24.03 80.4989C24.1021 80.3759 24.1492 80.2398 24.1685 80.0985C24.1878 79.9573 24.179 79.8136 24.1425 79.6757L23.4632 76.5292Z" fill="#FFD3C6"/>
<path d="M25.0788 69.8194C24.4966 68.1953 22.4977 66.0184 20.8723 66.6002L21.5128 71.56C19.8826 72.1369 18.6017 70.2946 19.1936 71.9139L20.7753 76.3597C21.0539 77.1396 21.6311 77.7769 22.3799 78.1315C23.1288 78.4861 23.9879 78.5289 24.7683 78.2505C25.6416 77.9403 27.2476 75.8798 26.6654 74.2605L25.0788 69.8194Z" fill="#FFD3C6"/>
<path d="M12.9834 45.5584C12.9834 45.5584 5.67658 47.3474 8.93697 55.6815L18.0292 76.1265L27.2816 72.4807L20.7026 47.9486C20.7026 47.9486 15.8508 44.6614 12.9834 45.5584Z" fill="#EBF7F8"/>
</g>
<defs>
<radialGradient id="paint0_radial_322:8828" cx="0" cy="0" r="1" gradientUnits="userSpaceOnUse" gradientTransform="translate(18.1796 100.131) scale(12.7699 12.7606)">
<stop stop-color="#1586A6"/>
<stop offset="1" stop-color="#2FA1BC"/>
</radialGradient>
<clipPath id="clip0_322:8828">
<rect width="82" height="146" fill="white"/>
</clipPath>
</defs>
</svg>
