<?xml version="1.0" encoding="utf-8"?>
<!-- Generator: Adobe Illustrator 16.0.0, SVG Export Plug-In . SVG Version: 6.00 Build 0)  -->
<!DOCTYPE svg PUBLIC "-//W3C//DTD SVG 1.1//EN" "http://www.w3.org/Graphics/SVG/1.1/DTD/svg11.dtd">
<svg version="1.1" id="Layer_1" xmlns="http://www.w3.org/2000/svg" xmlns:xlink="http://www.w3.org/1999/xlink" x="0px" y="0px"
	 width="18px" height="18px" viewBox="3 3 18 18" enable-background="new 3 3 18 18" xml:space="preserve">
<path fill="none" d="M0,0h24v24H0V0z"/>
<path fill="#1BBC9C" d="M19,3H5C3.9,3,3,3.9,3,5v14c0,1.1,0.9,2,2,2h14c1.1,0,2-0.9,2-2V5C21,3.9,20.1,3,19,3z M10.71,16.29
	c-0.39,0.39-1.02,0.39-1.41,0L5.71,12.7c-0.39-0.39-0.39-1.02,0-1.41s1.02-0.39,1.41,0L10,14.17l6.88-6.88
	c0.39-0.39,1.021-0.39,1.41,0s0.39,1.02,0,1.41L10.71,16.29z"/>
</svg>
