<?xml version="1.0" encoding="utf-8"?>
<!-- Generator: Adobe Illustrator 16.0.0, SVG Export Plug-In . SVG Version: 6.00 Build 0)  -->
<!DOCTYPE svg PUBLIC "-//W3C//DTD SVG 1.1//EN" "http://www.w3.org/Graphics/SVG/1.1/DTD/svg11.dtd">
<svg version="1.1" id="Layer_1" xmlns="http://www.w3.org/2000/svg" xmlns:xlink="http://www.w3.org/1999/xlink" x="0px" y="0px"
	 width="16.8px" height="20.25px" viewBox="0 0 16.8 20.25" enable-background="new 0 0 16.8 20.25" xml:space="preserve">
<path fill="#1F7BAA" d="M8.4,20.25c-0.267,0-0.525-0.05-0.775-0.149C7.375,20,7.15,19.866,6.95,19.7
	c-2.333-2.133-4.075-4.117-5.225-5.95S0,10.2,0,8.6c0-2.633,0.85-4.725,2.55-6.275C4.25,0.775,6.2,0,8.4,0s4.15,0.775,5.85,2.325
	S16.8,5.967,16.8,8.6c0,1.6-0.575,3.317-1.725,5.15c-1.15,1.833-2.892,3.817-5.226,5.95c-0.199,0.166-0.425,0.3-0.675,0.4
	C8.925,20.2,8.667,20.25,8.4,20.25z"/>
<path fill="#010101" d="M8.4,10.5c0.633,0,1.167-0.216,1.6-0.65c0.434-0.433,0.65-0.983,0.65-1.65c0-0.6-0.217-1.125-0.65-1.575
	C9.566,6.175,9.033,5.95,8.4,5.95S7.233,6.175,6.8,6.625C6.367,7.075,6.15,7.6,6.15,8.2c0,0.667,0.217,1.217,0.65,1.65
	C7.233,10.284,7.767,10.5,8.4,10.5z"/>
<path fill="#FFFEFE" d="M8.399,11.726c0.967,0,1.792-0.342,2.476-1.025c0.684-0.685,1.025-1.509,1.025-2.476
	s-0.342-1.791-1.025-2.475S9.366,4.725,8.399,4.725S6.608,5.066,5.925,5.75S4.899,7.258,4.899,8.225s0.342,1.791,1.025,2.476
	C6.608,11.384,7.433,11.726,8.399,11.726z"/>
</svg>
