<?xml version="1.0" encoding="utf-8"?>
<!-- Generator: Adobe Illustrator 16.0.0, SVG Export Plug-In . SVG Version: 6.00 Build 0)  -->
<!DOCTYPE svg PUBLIC "-//W3C//DTD SVG 1.1//EN" "http://www.w3.org/Graphics/SVG/1.1/DTD/svg11.dtd">
<svg version="1.1" id="Layer_1" xmlns="http://www.w3.org/2000/svg" xmlns:xlink="http://www.w3.org/1999/xlink" x="0px" y="0px"
	 width="24px" height="24px" viewBox="0 0 24 24" enable-background="new 0 0 24 24" xml:space="preserve">
<path fill="none" d="M0,0h24v24H0V0z"/>
<path fill="#999999" d="M12.521,10.4c-0.76-2.152-3-3.6-5.504-3.104c-1.832,0.368-3.32,1.832-3.704,3.664
	C2.656,14.057,5.008,16.8,8,16.8c2.088,0,3.864-1.336,4.52-3.2H16V15.2c0,0.881,0.721,1.601,1.602,1.601c0.879,0,1.6-0.72,1.6-1.601
	V13.6c0.88,0,1.601-0.721,1.601-1.6c0-0.88-0.721-1.6-1.601-1.6H12.521z M8,13.6c-0.88,0-1.6-0.721-1.6-1.6c0-0.88,0.72-1.6,1.6-1.6
	s1.6,0.72,1.6,1.6C9.601,12.879,8.88,13.6,8,13.6z"/>
</svg>
