<?xml version="1.0" encoding="utf-8"?>
<!-- Generator: Adobe Illustrator 16.0.0, SVG Export Plug-In . SVG Version: 6.00 Build 0)  -->
<!DOCTYPE svg PUBLIC "-//W3C//DTD SVG 1.1//EN" "http://www.w3.org/Graphics/SVG/1.1/DTD/svg11.dtd">
<svg version="1.1" id="Layer_1" xmlns="http://www.w3.org/2000/svg" xmlns:xlink="http://www.w3.org/1999/xlink" x="0px" y="0px"
	 width="20px" height="20px" viewBox="2 2 20 20" enable-background="new 2 2 20 20" xml:space="preserve">
<g>
	<path fill="none" d="M0,0h24v24H0V0z"/>
</g>
<g>
	<g>
		<path d="M19.74,18.33C21.15,16.6,22,14.4,22,12c0-5.52-4.48-10-10-10C6.48,2,2,6.48,2,12c0,5.52,4.48,10,10,10
			c2.4,0,4.6-0.85,6.33-2.26c0.27-0.221,0.529-0.461,0.779-0.711c0.031-0.029,0.051-0.059,0.07-0.079
			C19.38,18.75,19.57,18.54,19.74,18.33z M12,20c-4.41,0-8-3.59-8-8s3.59-8,8-8s8,3.59,8,8c0,1.85-0.63,3.54-1.689,4.9l-1.431-1.43
			c0.69-0.98,1.101-2.171,1.101-3.46c0-3.31-2.69-6-6-6s-6,2.69-6,6s2.69,6,6,6c1.299,0,2.51-0.42,3.491-1.13l1.42,1.42
			C15.54,19.37,13.85,20,12,20z M13.92,12.51c0.17-0.66,0.02-1.38-0.49-1.9l-0.02-0.02c-0.77-0.77-2-0.78-2.78-0.04
			c-0.01,0.01-0.03,0.02-0.05,0.04c-0.78,0.78-0.78,2.051,0,2.83l0.02,0.02c0.52,0.511,1.25,0.67,1.91,0.49l1.51,1.51
			c-0.6,0.36-1.289,0.58-2.04,0.58c-2.21,0-4-1.789-4-4c0-2.21,1.79-4,4-4c2.209,0,4,1.79,4,4c0,0.73-0.211,1.41-0.561,2
			L13.92,12.51z"/>
	</g>
</g>
</svg>
