<svg width="132" height="146" viewBox="0 0 132 146" fill="none" xmlns="http://www.w3.org/2000/svg">
<g clip-path="url(#clip0_322:8698)">
<path d="M66.3314 142.149C66.2077 140.899 65.947 139.489 65.947 139.489L65.7659 139.609C65.7659 139.046 65.7659 138.461 65.7305 137.836L58.6392 138.013L54.2696 140.899C53.4478 141.098 50.6421 142.025 50.4963 145.256L50.651 145.978C52.3255 146.058 57.2784 145.841 58.4846 145.708C59.1164 145.637 66.1282 145.659 66.1282 145.659C66.1768 145.446 66.5567 144.409 66.3314 142.149Z" fill="#80879A"/>
<path d="M83.2931 141.9C83.1694 140.654 82.9043 139.24 82.9043 139.24L82.7275 139.36C82.7275 138.797 82.7275 138.212 82.6922 137.587L75.5964 137.764L71.2268 140.65C70.4094 140.849 67.5994 141.776 67.458 145.007L67.6127 145.729C69.2872 145.809 74.24 145.592 75.4462 145.459C76.078 145.388 83.0898 145.41 83.0898 145.41C83.1384 145.197 83.5184 144.178 83.2931 141.9Z" fill="#80879A"/>
<path d="M84.3624 26.0094C85.1593 25.7774 85.9947 25.7087 86.8187 25.8074C87.6427 25.906 88.4385 26.17 89.1587 26.5835C89.8788 26.9971 90.5087 27.5518 91.0108 28.2147C91.5129 28.8775 91.8768 29.6349 92.0811 30.4418L95.8013 44.0361L97.816 52.1519C98.2814 53.7939 98.0945 55.5529 97.2945 57.0596C96.4945 58.5663 95.1438 59.7034 93.5258 60.2322C92.7289 60.4642 91.8935 60.5329 91.0695 60.4342C90.2455 60.3356 89.4498 60.0716 88.7296 59.6581C88.0094 59.2445 87.3795 58.6898 86.8774 58.0269C86.3754 57.3641 86.0114 56.6067 85.8071 55.7998L83.7968 47.6751L80.0722 34.0853C79.607 32.4439 79.794 30.6855 80.594 29.1795C81.394 27.6735 82.7448 26.5372 84.3624 26.0094Z" fill="#80CFF1"/>
<path d="M84.3624 26.0094C85.1593 25.7774 85.9947 25.7087 86.8187 25.8074C87.6427 25.906 88.4385 26.17 89.1586 26.5835C89.8788 26.9971 90.5087 27.5518 91.0108 28.2147C91.5129 28.8775 91.8768 29.6349 92.0811 30.4418L95.8013 44.0361L98.3506 54.2662C99.2961 57.719 96.8395 59.2216 93.5258 60.2322C92.7289 60.4642 91.8935 60.5329 91.0695 60.4342C90.2455 60.3356 89.4498 60.0716 88.7296 59.6581C88.0094 59.2445 87.3795 58.6898 86.8774 58.0269C86.3754 57.3641 86.0114 56.6067 85.8071 55.7998L83.7968 47.6751L80.0722 34.0853C79.607 32.4439 79.794 30.6855 80.594 29.1795C81.394 27.6735 82.7448 26.5372 84.3624 26.0094Z" fill="url(#paint0_radial_322:8698)"/>
<path d="M54.4463 69.0304C54.4463 69.0304 83.0722 66.1937 84.8307 69.8371C84.8307 69.8371 83.947 127.459 82.7806 138.943H72.9986L70.3123 78.6355C69.7821 78.077 68.9868 78.6133 68.9868 78.6133C68.9205 86.902 66.3977 138.943 66.3977 138.943H56.5273L54.4463 69.0304Z" fill="#2B3362"/>
<path d="M54.2033 25.943C52.5981 25.6494 50.9424 26.0068 49.5996 26.9367C48.2568 27.8666 47.3367 29.2931 47.0413 30.9029L44.6378 44.1027L42.8307 53.6723C42.6857 54.4695 42.6985 55.2875 42.8686 56.0797C43.0387 56.8718 43.3626 57.6226 43.8219 58.2892C44.2812 58.9557 44.8669 59.525 45.5455 59.9645C46.2241 60.404 46.9823 60.7051 47.777 60.8507C48.5716 60.9962 49.3869 60.9833 50.1766 60.8126C50.9662 60.642 51.7146 60.3171 52.379 59.8563C53.0435 59.3955 53.6109 58.808 54.049 58.1272C54.4871 57.4464 54.7873 56.6857 54.9323 55.8885L56.7526 46.3145L59.1606 33.1191C59.4516 31.508 59.0928 29.847 58.1632 28.5012C57.2335 27.1555 55.8092 26.2353 54.2033 25.943Z" fill="#80CFF1"/>
<path d="M54.2033 25.943C52.5981 25.6494 50.9424 26.0068 49.5996 26.9367C48.2568 27.8666 47.3367 29.2931 47.0413 30.9029L44.6378 44.1027L42.8307 53.6723C42.6857 54.4695 42.6985 55.2875 42.8686 56.0797C43.0387 56.8718 43.3626 57.6226 43.8219 58.2892C44.2812 58.9557 44.8669 59.525 45.5455 59.9645C46.2241 60.404 46.9823 60.7051 47.777 60.8507C48.5716 60.9962 49.3869 60.9833 50.1766 60.8126C50.9662 60.642 51.7146 60.3171 52.379 59.8563C53.0435 59.3955 53.6109 58.808 54.049 58.1272C54.4871 57.4464 54.7873 56.6857 54.9323 55.8885L56.7526 46.3145L59.1606 33.1191C59.4516 31.508 59.0928 29.847 58.1632 28.5012C57.2335 27.1555 55.8092 26.2353 54.2033 25.943Z" fill="url(#paint1_radial_322:8698)"/>
<path d="M54.2033 25.943C52.5981 25.6494 50.9424 26.0068 49.5996 26.9367C48.2568 27.8666 47.3367 29.2931 47.0413 30.9029L44.6378 44.1027L42.8307 53.6723C42.6857 54.4695 42.6985 55.2875 42.8686 56.0797C43.0387 56.8718 43.3626 57.6226 43.8219 58.2892C44.2812 58.9557 44.8669 59.525 45.5455 59.9645C46.2241 60.404 46.9823 60.7051 47.777 60.8507C48.5716 60.9962 49.3869 60.9833 50.1766 60.8126C50.9662 60.642 51.7146 60.3171 52.379 59.8563C53.0435 59.3955 53.6109 58.808 54.049 58.1272C54.4871 57.4464 54.7873 56.6857 54.9323 55.8885L56.7526 46.3145L59.1606 33.1191C59.4516 31.508 59.0928 29.847 58.1632 28.5012C57.2335 27.1555 55.8092 26.2353 54.2033 25.943Z" fill="url(#paint2_radial_322:8698)"/>
<path d="M58.0648 25.708L58.4669 72.4791L79.2946 72.448L79.4315 25.7257L58.0648 25.708Z" fill="white"/>
<path d="M54.031 25.7031C54.031 25.7031 50.9382 32.9901 51.38 38.6458L53.081 77.208H60.5921L58.0648 25.7076L54.031 25.7031Z" fill="#80CFF1"/>
<path d="M87.2651 25.73L79.4315 25.7256L77.0457 77.1729L86.651 77.1596L87.2651 25.73Z" fill="#80CFF1"/>
<path d="M87.2651 25.73L79.4315 25.7256L77.0457 77.1729L86.651 77.1596L87.2651 25.73Z" fill="url(#paint3_radial_322:8698)"/>
<path d="M63.7998 0.390397C66.0825 -0.0380844 68.4165 -0.118766 70.7232 0.151055C72.0487 0.284028 73.6348 0.913428 74.059 1.97278C79.0383 4.189 76.3609 12.9298 76.3609 12.9298L69.2121 13.0228V13.0672L67.8071 13.045L66.3977 13.0672V13.0228L59.2489 12.9298C59.2489 12.9298 59.4257 13.0627 59.2711 12.8854C58.4669 11.9369 58.1311 10.3146 57.9942 9.11786C57.772 7.25028 58.1088 5.35863 58.9618 3.68371C59.947 1.7423 61.6834 0.767154 63.7998 0.390397Z" fill="#064182"/>
<path d="M63.95 25.6191C63.95 27.689 66.0265 29.3645 67.975 29.3645C69.9234 29.3645 72 27.689 72 25.6191L71.5052 20.5218C71.5313 19.5549 71.1737 18.6173 70.5108 17.9149C69.848 17.2126 68.9343 16.803 67.9706 16.7764C67.0069 16.803 66.0931 17.2126 65.4303 17.9149C64.7675 18.6173 64.4098 19.5549 64.436 20.5218L63.95 25.6191Z" fill="#F3D5BD"/>
<path d="M63.95 25.6191C63.95 27.689 66.0265 29.3645 67.975 29.3645C69.9234 29.3645 72 27.689 72 25.6191L71.5052 20.5218C71.5313 19.5549 71.1737 18.6173 70.5108 17.9149C69.848 17.2126 68.9343 16.803 67.9706 16.7764C67.0069 16.803 66.0931 17.2126 65.4303 17.9149C64.7675 18.6173 64.4098 19.5549 64.436 20.5218L63.95 25.6191Z" fill="#FFC9B6"/>
<path d="M64.2989 6.22275C66.6097 6.22275 69.8659 5.86816 72.2827 5.86816C72.7819 5.86816 75.3136 11.6746 75.7775 11.555C75.9286 12.2676 76.0056 12.9939 76.0073 13.7224C76.0073 18.966 72.0795 23.2167 67.237 23.2167C62.3946 23.2167 58.4668 18.966 58.4668 13.7224C58.4659 12.2981 58.7671 10.8899 59.3505 9.59141C62.3991 5.42492 62.7128 6.22275 64.2989 6.22275Z" fill="#FFD3C6"/>
<path d="M71.5183 6.79004C66.6582 9.59577 63.0839 4.83978 58.5817 11.3865C58.8777 3.7494 64.1929 1.92766 67.6612 2.17587C74.9999 2.69447 76.7805 8.38129 76.4314 12.007C75.9675 12.1267 73.8998 10.0213 71.5183 6.79004Z" fill="#064182"/>
<path d="M69.3181 14.9084C69.3181 15.0259 69.3528 15.1407 69.4179 15.2384C69.4829 15.3361 69.5754 15.4122 69.6836 15.4571C69.7918 15.5021 69.9108 15.5138 70.0257 15.4909C70.1405 15.468 70.246 15.4115 70.3288 15.3284C70.4116 15.2453 70.468 15.1395 70.4908 15.0243C70.5137 14.9091 70.502 14.7896 70.4572 14.6811C70.4123 14.5726 70.3365 14.4798 70.2391 14.4146C70.1417 14.3493 70.0272 14.3145 69.9102 14.3145C69.7531 14.3145 69.6025 14.377 69.4915 14.4884C69.3805 14.5998 69.3181 14.7509 69.3181 14.9084Z" fill="#064182"/>
<path d="M63.3048 14.9084C63.3048 15.0259 63.3395 15.1407 63.4046 15.2384C63.4697 15.3361 63.5621 15.4122 63.6703 15.4572C63.7785 15.5021 63.8975 15.5139 64.0124 15.4909C64.1272 15.468 64.2327 15.4115 64.3155 15.3284C64.3983 15.2453 64.4547 15.1395 64.4775 15.0243C64.5004 14.9091 64.4886 14.7897 64.4438 14.6811C64.399 14.5726 64.3231 14.4798 64.2258 14.4146C64.1284 14.3493 64.014 14.3145 63.8969 14.3145C63.8189 14.3139 63.7417 14.3288 63.6696 14.3585C63.5975 14.3881 63.532 14.4318 63.4769 14.4871C63.4218 14.5424 63.3782 14.6081 63.3487 14.6804C63.3191 14.7527 63.3042 14.8303 63.3048 14.9084Z" fill="#064182"/>
<path d="M72.9631 14.7152C72.964 15.2761 73.1306 15.8241 73.4418 16.29C73.7531 16.7559 74.195 17.1189 74.7118 17.3329C75.2285 17.5469 75.7969 17.6025 76.3452 17.4925C76.8934 17.3825 77.3968 17.112 77.7919 16.7151C78.1869 16.3182 78.4557 15.8127 78.5645 15.2626C78.6732 14.7124 78.617 14.1423 78.4028 13.6242C78.1887 13.1061 77.8262 12.6633 77.3613 12.3518C76.8964 12.0403 76.3499 11.874 75.7908 11.874C75.0404 11.8752 74.3212 12.1751 73.7911 12.7078C73.2609 13.2405 72.9631 13.9625 72.9631 14.7152Z" fill="#FFD3C6"/>
<path d="M69.1061 13.3124C69.3565 13.1102 69.6683 13 69.9897 13C70.3112 13 70.623 13.1102 70.8734 13.3124" stroke="#064182" stroke-width="1.3" stroke-linecap="round" stroke-linejoin="round"/>
<path d="M63 13.3124C63.2504 13.1102 63.5622 13 63.8837 13C64.2051 13 64.5169 13.1102 64.7673 13.3124" stroke="#064182" stroke-width="1.3" stroke-linecap="round" stroke-linejoin="round"/>
<path d="M65.0413 18.1907L68.7526 18.1064C68.7526 18.1064 68.9161 20.1365 66.5788 20.0744C66.1313 20.0167 65.7227 19.7895 65.4368 19.4392C65.1509 19.0889 65.0094 18.6422 65.0413 18.1907Z" fill="#ED6B7B"/>
<path d="M14.1738 8.54103C9.64641 10.4216 5.83951 13.7092 3.3124 17.9209C0.785298 22.1326 -0.328785 27.0463 0.133811 31.9402C0.596406 36.8341 2.6113 41.4502 5.88249 45.1102C9.15367 48.7703 13.5087 51.2815 18.3077 52.2748C23.1068 53.2681 28.0969 52.6912 32.545 50.6288C36.993 48.5664 40.6645 45.1273 43.0201 40.8167C45.3756 36.5061 46.291 31.5512 45.6319 26.6801C44.9727 21.8089 42.7737 17.2782 39.3579 13.7536C36.17 10.4441 32.0611 8.17622 27.5681 7.24628C23.0752 6.31634 18.4071 6.76758 14.1738 8.54103Z" fill="#598CD8"/>
<path d="M24.5656 48.9957C19.9814 49.4068 15.4024 48.1547 11.6602 45.4669C7.91797 42.7791 5.26089 38.8339 4.17159 34.3479C3.08229 29.8619 3.63304 25.1328 5.72378 21.0195C7.81453 16.9062 11.3066 13.6817 15.5656 11.9317C19.7034 10.2137 24.3088 9.99673 28.5889 11.3181C32.8691 12.6395 36.5561 15.4165 39.0152 19.1711C41.4743 22.9257 42.5517 27.4229 42.0618 31.8885C41.572 36.3541 39.5455 40.5086 36.3314 43.6369C34.3134 45.5982 31.8891 47.0889 29.2313 48.0028C27.7226 48.5247 26.1555 48.8581 24.5656 48.9957Z" fill="white"/>
<path d="M40.0074 33.1817C39.4304 36.0989 38.122 38.8205 36.2056 41.0897C34.2893 43.3589 31.8281 45.1008 29.0545 46.151C26.6837 47.0416 24.1464 47.3973 21.623 47.1926C20.1796 47.0738 18.7564 46.776 17.3859 46.3061C14.5658 45.3658 12.0329 43.7162 10.029 41.5146C8.02507 39.3131 6.61697 36.6331 5.93903 33.7304C5.26109 30.8277 5.33592 27.7991 6.15643 24.9336C6.97695 22.0682 8.51573 19.4615 10.626 17.3623" fill="#AFD2F8"/>
<path d="M10.6039 17.3796C13.2517 14.7338 16.6768 13.0116 20.3742 12.4669C24.0717 11.9221 27.8458 12.5837 31.14 14.3541C34.4343 16.1244 37.0743 18.9098 38.6708 22.2996C40.2674 25.6893 40.7359 29.504 40.0074 33.1812" fill="#C8E2FB"/>
<path d="M39.8571 43.1809C39.4031 42.815 38.8235 42.6437 38.2443 42.7043C37.6652 42.7649 37.1332 43.0525 36.7643 43.5045L36.1811 44.1516C35.7655 44.5627 35.529 45.1221 35.5232 45.7076C35.5174 46.2931 35.7428 46.8571 36.1502 47.2765L40.3917 51.1548L44.0809 47.0371L39.8571 43.1809Z" fill="#598CD8"/>
<path d="M74.2666 70.387L46.6657 45.6141C46.2019 45.2571 45.6159 45.0991 45.0362 45.1748C44.4565 45.2504 43.9303 45.5534 43.5729 46.0175L43.2901 46.3455L43.2239 46.2878L39.6451 50.5031L39.6804 50.5385L39.3976 50.8665C38.9926 51.2882 38.7703 51.8535 38.7794 52.439C38.7886 53.0245 39.0283 53.5827 39.4463 53.9914L67.0515 78.7643C67.5154 79.1213 68.1013 79.2793 68.681 79.2036C69.2607 79.128 69.7869 78.825 70.1443 78.3609L74.3196 73.5118C74.7241 73.0896 74.9455 72.524 74.9356 71.9384C74.9257 71.3529 74.6851 70.7952 74.2666 70.387Z" fill="#2FA1BC"/>
<path d="M44.8233 52.853C44.7774 52.5755 44.8146 52.2906 44.93 52.0343C45.0454 51.778 45.234 51.5617 45.4718 51.4129C45.7097 51.264 45.9862 51.1892 46.2664 51.1979C46.5466 51.2067 46.818 51.2985 47.0462 51.4619C47.2744 51.6252 47.4493 51.8528 47.5486 52.1158C47.648 52.3788 47.6675 52.6654 47.6045 52.9395C47.5416 53.2136 47.3991 53.4628 47.195 53.6556C46.991 53.8485 46.7345 53.9764 46.4581 54.0231C46.0867 54.0847 45.7062 53.9961 45.3998 53.7768C45.0934 53.5575 44.8861 53.2253 44.8233 52.853Z" fill="white"/>
<path d="M44.1561 57.2099C44.3614 57.1126 44.5963 57.0984 44.8118 57.1702C45.0274 57.242 45.2071 57.3943 45.3137 57.5955C45.412 57.802 45.4269 58.0386 45.3552 58.2559C45.2836 58.4732 45.1309 58.6543 44.9293 58.7612L43.5684 59.4793C43.3636 59.5769 43.1292 59.5918 42.9137 59.5208C42.6982 59.4499 42.5182 59.2985 42.4109 59.0981C42.3125 58.8916 42.2977 58.6549 42.3693 58.4376C42.4409 58.2204 42.5936 58.0393 42.7952 57.9323L44.1561 57.2099Z" fill="#FFD3C6"/>
<path d="M45.2651 58.4197C45.4699 58.3221 45.7043 58.3072 45.9198 58.3782C46.1353 58.4492 46.3153 58.6005 46.4227 58.8009C46.5196 59.007 46.5338 59.2425 46.4622 59.4588C46.3906 59.675 46.2388 59.8553 46.0383 59.9622L44.6774 60.6891C44.4721 60.7864 44.2372 60.8006 44.0217 60.7288C43.8061 60.657 43.6264 60.5047 43.5199 60.3035C43.4216 60.097 43.4067 59.8604 43.4783 59.6431C43.5499 59.4258 43.7026 59.2448 43.9042 59.1378L45.2651 58.4197Z" fill="#FFD3C6"/>
<path d="M46.3652 59.6298C46.5705 59.5325 46.8054 59.5183 47.0209 59.5901C47.2365 59.6619 47.4162 59.8142 47.5228 60.0154C47.6197 60.2214 47.6339 60.457 47.5623 60.6732C47.4907 60.8895 47.3389 61.0698 47.1384 61.1767L45.7775 61.9036C45.5722 62.0009 45.3373 62.0151 45.1218 61.9433C44.9062 61.8715 44.7265 61.7192 44.62 61.518C44.5216 61.3115 44.5068 61.0748 44.5784 60.8576C44.65 60.6403 44.8027 60.4592 45.0043 60.3523L46.3652 59.6298Z" fill="#FFD3C6"/>
<path d="M68.0942 64.1814C68.2067 64.1446 68.3254 64.1308 68.4434 64.1409C68.5613 64.151 68.676 64.1847 68.7806 64.2401C68.8853 64.2955 68.9778 64.3714 69.0527 64.4634C69.1275 64.5553 69.1832 64.6614 69.2164 64.7754C69.2532 64.8882 69.2669 65.0074 69.2568 65.1256C69.2468 65.2439 69.2132 65.359 69.158 65.464C69.1027 65.569 69.0271 65.6618 68.9354 65.7369C68.8437 65.812 68.738 65.8679 68.6244 65.9012L64.9705 67.0359C64.858 67.0727 64.7393 67.0865 64.6214 67.0764C64.5035 67.0664 64.3888 67.0326 64.2841 66.9772C64.1794 66.9218 64.0869 66.8459 64.012 66.754C63.9372 66.662 63.8815 66.5559 63.8483 66.442C63.8116 66.3291 63.7978 66.21 63.8079 66.0917C63.8179 65.9734 63.8515 65.8583 63.9068 65.7533C63.962 65.6483 64.0377 65.5555 64.1293 65.4804C64.221 65.4053 64.3267 65.3494 64.4403 65.3161L68.0942 64.1814Z" fill="#FFD3C6"/>
<path d="M65.916 66.8676C65.9726 66.7637 66.0494 66.6723 66.1417 66.5986C66.2341 66.525 66.3403 66.4707 66.4539 66.4389C66.5676 66.407 66.6865 66.3984 66.8035 66.4134C66.9206 66.4284 67.0334 66.4668 67.1355 66.5263C67.239 66.5831 67.3302 66.6601 67.4036 66.7528C67.477 66.8455 67.5311 66.9519 67.5628 67.066C67.5945 67.18 67.6031 67.2992 67.5882 67.4167C67.5732 67.5341 67.535 67.6473 67.4757 67.7497L65.5979 71.0962C65.5417 71.2004 65.4652 71.2923 65.373 71.3664C65.2808 71.4404 65.1747 71.4952 65.061 71.5275C64.9473 71.5597 64.8283 71.5687 64.7111 71.554C64.5938 71.5393 64.4807 71.5012 64.3785 71.4419C64.2743 71.3851 64.1826 71.3079 64.1088 71.2149C64.035 71.1219 63.9806 71.0149 63.9489 70.9003C63.9172 70.7858 63.9087 70.666 63.9241 70.5481C63.9394 70.4302 63.9782 70.3166 64.0382 70.2141L65.916 66.8676Z" fill="#FFD3C6"/>
<path d="M67.5729 67.2841C67.6291 67.1798 67.7055 67.0879 67.7978 67.0138C67.89 66.9398 67.9961 66.885 68.1098 66.8527C68.2235 66.8205 68.3424 66.8115 68.4597 66.8262C68.5769 66.8409 68.69 66.879 68.7923 66.9383C68.8964 66.9951 68.9881 67.0723 69.0619 67.1653C69.1357 67.2583 69.1901 67.3653 69.2219 67.4799C69.2536 67.5944 69.262 67.7142 69.2467 67.8321C69.2314 67.95 69.1925 68.0636 69.1325 68.1661L67.2592 71.5126C67.203 71.6174 67.1263 71.7099 67.0337 71.7843C66.9412 71.8588 66.8346 71.9138 66.7204 71.9461C66.6062 71.9784 66.4867 71.9872 66.369 71.9721C66.2513 71.9571 66.1378 71.9184 66.0353 71.8583C65.9312 71.8016 65.8395 71.7244 65.7657 71.6314C65.6919 71.5383 65.6375 71.4313 65.6058 71.3168C65.574 71.2022 65.5656 71.0824 65.5809 70.9646C65.5963 70.8467 65.6351 70.7331 65.6951 70.6305L67.5729 67.2841Z" fill="#FFD3C6"/>
<path d="M69.2076 67.6747C69.2638 67.5698 69.3405 67.4774 69.433 67.403C69.5256 67.3285 69.6322 67.2735 69.7464 67.2412C69.8606 67.2089 69.9801 67.2001 70.0978 67.2151C70.2155 67.2302 70.329 67.2689 70.4314 67.329C70.5356 67.3857 70.6273 67.4629 70.7011 67.5559C70.7749 67.649 70.8293 67.756 70.861 67.8705C70.8927 67.9851 70.9012 68.1048 70.8858 68.2227C70.8705 68.3406 70.8317 68.4542 70.7717 68.5567L68.8983 71.9032C68.8417 72.0071 68.765 72.0986 68.6726 72.1722C68.5802 72.2458 68.474 72.3002 68.3604 72.332C68.2467 72.3638 68.1279 72.3725 68.0108 72.3574C67.8938 72.3424 67.7809 72.304 67.6789 72.2445C67.5747 72.1878 67.4831 72.1106 67.4093 72.0176C67.3355 71.9245 67.2811 71.8175 67.2493 71.703C67.2176 71.5884 67.2091 71.4687 67.2245 71.3508C67.2398 71.2329 67.2787 71.1193 67.3387 71.0168L69.2076 67.6747Z" fill="#FFD3C6"/>
<path d="M71.514 62.6662C71.8212 62.5237 72.1534 62.4434 72.4916 62.4298C72.8297 62.4162 73.1672 62.4696 73.4848 62.5869C73.8024 62.7042 74.0938 62.8832 74.3424 63.1135C74.591 63.3439 74.792 63.6211 74.9337 63.9294C75.2195 64.5527 75.2474 65.2641 75.0114 65.9079C74.7754 66.5518 74.2947 67.0755 73.6745 67.3646L70.1399 68.9957C69.8327 69.1382 69.5006 69.2185 69.1624 69.2321C68.8242 69.2457 68.4867 69.1923 68.1691 69.075C67.8515 68.9577 67.5601 68.7787 67.3115 68.5484C67.0629 68.318 66.8619 68.0408 66.7202 67.7325C66.5783 67.424 66.4985 67.0905 66.4853 66.7511C66.472 66.4116 66.5256 66.0729 66.6429 65.7543C66.7603 65.4356 66.9391 65.1433 67.1692 64.8941C67.3993 64.6449 67.6761 64.4436 67.9838 64.3018L71.514 62.6662Z" fill="#FFD3C6"/>
<path d="M98.9426 57.1205C98.9426 57.1205 99.3402 49.2352 91.3387 51.1367C91.3387 51.1367 78.3535 56.9299 69.2739 62.3242L72.2032 69.8859C78.6937 67.9401 94.838 63.8445 96.296 62.794C99.2518 60.6576 98.8409 59.1151 98.9426 57.1205Z" fill="#80CFF1"/>
<path d="M71.8189 24.0547L66.8351 29.0899L69.8528 32.2769L73.7938 25.9651L71.8189 24.0547Z" fill="#C0C8D8"/>
<path d="M64.0604 24.0547L67.0074 29.0899L63.623 31.6297L62.0854 25.9651L64.0604 24.0547Z" fill="#C0C8D8"/>
<path d="M103.515 32.1221C102.865 31.7254 102.142 31.4616 101.39 31.346C100.637 31.2304 99.8691 31.2653 99.13 31.4486C98.3908 31.6319 97.6951 31.9601 97.0829 32.4142C96.4706 32.8683 95.9539 33.4394 95.5625 34.0946L84.3844 52.6576C83.9851 53.2879 83.7159 53.992 83.5926 54.7285C83.4693 55.4649 83.4945 56.2187 83.6667 56.9452C83.8389 57.6717 84.1546 58.3561 84.5951 58.9581C85.0356 59.5601 85.5919 60.0673 86.2312 60.4498C87.55 61.21 89.1127 61.4232 90.586 61.044C92.0594 60.6647 93.3267 59.7231 94.1178 58.4198L98.5361 51.1993L98.62 51.2481L105.464 40.0784C105.857 39.4276 106.118 38.7056 106.233 37.9536C106.347 37.2015 106.313 36.4342 106.132 35.6954C105.951 34.9566 105.627 34.2608 105.178 33.6477C104.729 33.0346 104.164 32.5162 103.515 32.1221Z" fill="#2FA1BC"/>
<path d="M103.515 32.1221C102.865 31.7254 102.142 31.4616 101.39 31.346C100.637 31.2304 99.8691 31.2653 99.13 31.4486C98.3908 31.6319 97.6951 31.9601 97.0829 32.4142C96.4706 32.8683 95.9539 33.4394 95.5625 34.0946L84.3844 52.6576C83.9851 53.2879 83.7159 53.992 83.5926 54.7285C83.4693 55.4649 83.4945 56.2187 83.6667 56.9452C83.8389 57.6717 84.1546 58.3561 84.5951 58.9581C85.0356 59.5601 85.5919 60.0673 86.2312 60.4498C87.55 61.21 89.1127 61.4232 90.586 61.044C92.0594 60.6647 93.3267 59.7231 94.1178 58.4198L98.5361 51.1993L98.62 51.2481L105.464 40.0784C105.857 39.4276 106.118 38.7056 106.233 37.9536C106.347 37.2015 106.313 36.4342 106.132 35.6954C105.951 34.9566 105.627 34.2608 105.178 33.6477C104.729 33.0346 104.164 32.5162 103.515 32.1221Z" fill="url(#paint4_radial_322:8698)"/>
<path d="M84.7732 35.1141C84.7975 35.2304 84.7982 35.3503 84.7754 35.4669C84.7525 35.5835 84.7066 35.6943 84.6402 35.7927C84.5739 35.8911 84.4885 35.9751 84.3891 36.0398C84.2898 36.1044 84.1785 36.1483 84.0618 36.169C83.5758 36.2665 83.1296 35.5795 83.0368 35.0919L82.3034 31.3155C82.2791 31.1992 82.2783 31.0792 82.3011 30.9626C82.324 30.846 82.3699 30.7353 82.4363 30.6369C82.5026 30.5384 82.588 30.4544 82.6874 30.3898C82.7868 30.3251 82.8981 30.2812 83.0147 30.2606C83.5051 30.1675 83.947 30.8501 84.0397 31.3376L84.7732 35.1141Z" fill="#FFD3C6"/>
<path d="M82.352 32.2683C82.4498 32.3359 82.5329 32.4225 82.5965 32.5231C82.6601 32.6236 82.7029 32.736 82.7223 32.8535C82.7417 32.971 82.7373 33.0912 82.7094 33.2069C82.6814 33.3226 82.6305 33.4316 82.5597 33.5271C82.4923 33.6245 82.4062 33.7074 82.3063 33.7708C82.2065 33.8343 82.0949 33.877 81.9784 33.8964C81.8618 33.9158 81.7425 33.9116 81.6276 33.8839C81.5127 33.8563 81.4044 33.8058 81.3093 33.7354L78.1768 31.5059C78.0797 31.4384 77.997 31.3519 77.9338 31.2518C77.8706 31.1516 77.8281 31.0397 77.8087 30.9228C77.7893 30.8058 77.7935 30.6861 77.8211 30.5709C77.8487 30.4556 77.899 30.347 77.9691 30.2516C78.0365 30.1535 78.1229 30.0701 78.2231 30.0062C78.3233 29.9424 78.4353 29.8995 78.5524 29.8801C78.6695 29.8606 78.7893 29.865 78.9047 29.8931C79.0201 29.9211 79.1286 29.9722 79.2239 30.0432L82.352 32.2683Z" fill="#FFD3C6"/>
<path d="M81.7732 33.8812C81.8707 33.9485 81.9536 34.0346 82.0173 34.1346C82.0809 34.2346 82.1239 34.3464 82.1437 34.4634C82.1635 34.5804 82.1596 34.7002 82.1324 34.8156C82.1052 34.9311 82.0552 35.0399 81.9853 35.1356C81.9182 35.234 81.8321 35.3178 81.7321 35.3821C81.632 35.4463 81.5201 35.4897 81.4029 35.5095C81.2858 35.5294 81.1659 35.5254 81.0504 35.4977C80.9348 35.47 80.826 35.4192 80.7305 35.3484L77.6068 33.11C77.509 33.0424 77.4259 32.9558 77.3622 32.8552C77.2986 32.7547 77.2559 32.6423 77.2365 32.5248C77.2171 32.4073 77.2215 32.2871 77.2494 32.1714C77.2774 32.0556 77.3283 31.9467 77.3991 31.8512C77.4665 31.7531 77.5528 31.6697 77.6531 31.6059C77.7533 31.542 77.8653 31.4991 77.9824 31.4797C78.0995 31.4602 78.2193 31.4647 78.3347 31.4927C78.4501 31.5207 78.5586 31.5718 78.6539 31.6428L81.7732 33.8812Z" fill="#FFD3C6"/>
<path d="M81.1988 35.4813C81.3911 35.6217 81.5209 35.8321 81.5605 36.0673C81.6002 36.3026 81.5464 36.5441 81.4108 36.7401C81.3438 36.8385 81.2577 36.9223 81.1576 36.9866C81.0576 37.0508 80.9456 37.0942 80.8285 37.114C80.7114 37.1339 80.5915 37.1299 80.4759 37.1022C80.3604 37.0745 80.2516 37.0237 80.156 36.9529L77.0323 34.7145C76.9346 34.6469 76.8514 34.5602 76.7878 34.4597C76.7242 34.3592 76.6814 34.2468 76.662 34.1293C76.6426 34.0118 76.647 33.8916 76.675 33.7759C76.7029 33.6601 76.7538 33.5512 76.8247 33.4557C76.892 33.3576 76.9784 33.2742 77.0786 33.2103C77.1788 33.1465 77.2908 33.1036 77.408 33.0842C77.5251 33.0647 77.6449 33.0691 77.7603 33.0972C77.8756 33.1252 77.9842 33.1763 78.0795 33.2473L81.1988 35.4813Z" fill="#FFD3C6"/>
<path d="M85.891 38.6912C86.1085 39.3419 86.0599 40.0525 85.7559 40.6673C85.452 41.2821 84.9175 41.751 84.2695 41.9712C82.9131 42.4144 81.4772 41.3329 81.0221 39.9766L79.785 36.2666C79.5676 35.6159 79.6162 34.9053 79.9201 34.2905C80.2241 33.6756 80.7586 33.2068 81.4065 32.9866C82.7629 32.5434 84.1944 33.6249 84.6495 34.9812L85.891 38.6912Z" fill="#FFD3C6"/>
<path d="M89.6642 61.1544C89.6642 61.1544 84.6009 62.6881 82.2416 56.4827C82.2416 56.4827 78.8439 42.8042 78.9014 38.0615L86.7526 36.0137L92.0545 52.2364C92.0545 52.2364 95.1385 58.7432 89.6642 61.1544Z" fill="#2FA1BC"/>
<path d="M106.131 138.234L99.5479 138.403L93.3623 142.596L93.0177 145.06L98.3726 145.158L106.326 145.517C106.326 145.517 106.211 142.365 106.131 138.234Z" fill="#F3D5BD"/>
<path d="M107.046 130.069C106.845 133.191 106.465 136.299 105.91 139.377L99.5876 138.903L98.704 130.229" fill="#F3D5BD"/>
<path d="M91.9971 145.296C92.1517 141.701 95.7084 141.102 95.7084 141.102C95.8454 142.512 99.3137 141.807 100.096 141.652C103.44 140.974 105.437 140.46 106.33 139.804C106.33 139.804 106.573 141.16 106.688 142.348C106.895 144.511 106.546 145.482 106.498 145.686C106.498 145.686 99.9941 145.686 99.4065 145.734C98.3019 145.858 93.6937 146.067 92.1384 145.991L91.9971 145.296Z" fill="#3B5A89"/>
<path d="M121.361 138.234L114.782 138.403L108.574 142.596L109.065 144.595L113.585 145.158L121.538 145.517C121.538 145.517 121.44 142.365 121.361 138.234Z" fill="#F3D5BD"/>
<path d="M122.28 130.069C121.944 134.551 121.926 136.239 121.396 139.191L114.795 138.903L113.965 130.224" fill="#F3D5BD"/>
<path d="M107.227 145.296C107.381 141.701 110.938 141.102 110.938 141.102C111.075 142.512 114.543 141.807 115.325 141.652C118.67 140.974 120.667 140.46 121.56 139.804C121.56 139.804 121.803 141.16 121.918 142.348C122.081 143.462 122.017 144.597 121.732 145.686C121.732 145.686 115.224 145.686 114.641 145.734C113.532 145.858 108.923 146.067 107.368 145.991L107.227 145.296Z" fill="#3B5A89"/>
<path d="M96.7069 67.8386C96.7069 67.8386 122.461 64.9442 124.153 68.663C124.153 68.663 123.314 120.638 122.174 132.335H112.767L110.898 77.262C110.39 76.6902 109.635 77.262 109.635 77.262C109.573 85.719 107.867 132.357 107.867 132.357H98.6907L96.7069 67.8386Z" fill="#4EC4B0"/>
<path d="M116.289 31.3018H103.06C102.137 33.3628 100.409 37.8174 100.409 42.1524L100.595 73.6226L116.298 73.5828L116.289 31.3018Z" fill="white"/>
<path d="M103.06 31.2842H101.333C101.333 31.2842 93.8218 41.594 94.3078 47.8438L95.7834 76.2468H100.586L100.401 42.1436C100.401 37.7999 102.137 33.3453 103.06 31.2842Z" fill="#2FA1BC"/>
<path d="M126.928 31.3151L115.573 31.3018V76.4195L125.686 76.3973L126.928 31.3151Z" fill="#A889DB"/>
<path d="M126.928 31.3151L115.573 31.3018V76.4195L125.686 76.3973L126.928 31.3151Z" fill="url(#paint5_radial_322:8698)"/>
<path d="M106.816 32.2902C106.816 34.3912 108.923 36.0977 110.903 36.0977C112.882 36.0977 114.99 34.3912 114.99 32.2902L114.486 27.1131C114.513 26.1317 114.151 25.1796 113.48 24.4657C112.808 23.7519 111.881 23.3346 110.903 23.3057C109.925 23.3346 108.998 23.7519 108.326 24.4657C107.654 25.1796 107.292 26.1317 107.32 27.1131L106.816 32.2902Z" fill="#F3D5BD"/>
<path d="M106.816 32.2902C106.816 34.3912 108.923 36.0977 110.903 36.0977C112.882 36.0977 114.99 34.3912 114.99 32.2902L114.486 27.1131C114.513 26.1317 114.151 25.1796 113.48 24.4657C112.808 23.7519 111.881 23.3346 110.903 23.3057C109.925 23.3346 108.998 23.7519 108.326 24.4657C107.654 25.1796 107.292 26.1317 107.32 27.1131L106.816 32.2902Z" fill="#FFC9B6"/>
<path d="M109.745 12.3886C111.954 12.8318 114.826 14.4984 117.128 14.955C117.605 15.0525 119.192 19.6578 119.655 19.6312C119.67 20.3391 119.607 21.0465 119.47 21.741C118.485 26.7231 113.951 30.0253 109.343 29.1122C104.735 28.1991 101.797 23.4032 102.782 18.4212C103.046 17.0664 103.594 15.7835 104.39 14.658C105.278 15.7927 108.221 12.0872 109.745 12.3886Z" fill="#FFD3C6"/>
<path d="M115.436 14.481C111.018 17.7566 104.947 17.1404 103.242 16.6972C104.956 9.49006 110.7 8.75429 113.951 9.64077C120.835 11.5246 120.831 16.6174 119.814 20.0038C119.351 20.0127 116.275 19.2015 115.436 14.481Z" fill="#064182"/>
<path d="M112.152 21.5756C112.123 21.7241 112.153 21.8781 112.235 22.0048C112.318 22.1314 112.446 22.2208 112.593 22.2538C112.705 22.2778 112.821 22.2682 112.927 22.226C113.032 22.1838 113.123 22.111 113.188 22.0168C113.252 21.9227 113.287 21.8114 113.289 21.6972C113.29 21.5829 113.258 21.4709 113.195 21.3752C113.133 21.2796 113.044 21.2047 112.939 21.1601C112.834 21.1154 112.718 21.1031 112.607 21.1245C112.495 21.146 112.392 21.2004 112.311 21.2807C112.23 21.361 112.174 21.4636 112.152 21.5756Z" fill="#064182"/>
<path d="M107.155 20.579C107.13 20.6908 107.14 20.8074 107.182 20.9138C107.224 21.0202 107.297 21.1116 107.391 21.1764C107.485 21.2411 107.596 21.2763 107.71 21.2774C107.824 21.2785 107.936 21.2455 108.032 21.1826C108.127 21.1197 108.201 21.0297 108.246 20.9242C108.29 20.8186 108.302 20.7023 108.28 20.5899C108.258 20.4776 108.203 20.3744 108.122 20.2935C108.041 20.2126 107.938 20.1577 107.826 20.1357C107.679 20.1068 107.526 20.137 107.4 20.2198C107.275 20.3027 107.187 20.4316 107.155 20.579Z" fill="#064182"/>
<path d="M126.778 31.3818C126.046 31.3813 125.321 31.5254 124.645 31.8061C123.969 32.0868 123.354 32.4985 122.837 33.0176C122.319 33.5367 121.909 34.1531 121.629 34.8315C121.349 35.5099 121.206 36.237 121.206 36.9711V49.1249L121.445 59.4746C121.445 62.5773 124.758 65.0684 127.591 65.0684C130.423 65.0684 132.009 62.564 132.009 59.4746V36.9844C132 33.895 129.87 31.3818 126.778 31.3818Z" fill="#A889DB"/>
<path d="M126.778 31.3818C126.046 31.3813 125.321 31.5254 124.645 31.8061C123.969 32.0868 123.354 32.4985 122.837 33.0176C122.319 33.5367 121.909 34.1531 121.629 34.8315C121.349 35.5099 121.206 36.237 121.206 36.9711V49.1249L121.445 59.4746C121.445 62.5773 124.758 65.0684 127.591 65.0684C130.423 65.0684 132.009 62.564 132.009 59.4746V36.9844C132 33.895 129.87 31.3818 126.778 31.3818Z" fill="#2FA1BC"/>
<path d="M126.778 31.3818C126.046 31.3813 125.321 31.5254 124.645 31.8061C123.969 32.0868 123.354 32.4985 122.837 33.0176C122.319 33.5367 121.909 34.1531 121.629 34.8315C121.349 35.5099 121.206 36.237 121.206 36.9711V49.1249L121.445 59.4746C121.445 62.5773 124.758 65.0684 127.591 65.0684C130.423 65.0684 132.009 62.564 132.009 59.4746V36.9844C132 33.895 129.87 31.3818 126.778 31.3818Z" fill="url(#paint6_radial_322:8698)"/>
<path d="M111.376 40.9867C111.41 41.1002 111.421 41.2194 111.409 41.3373C111.396 41.4552 111.36 41.5694 111.303 41.6732C111.246 41.7769 111.168 41.8681 111.075 41.9412C110.982 42.0144 110.876 42.0681 110.761 42.0992C110.648 42.1343 110.529 42.1461 110.411 42.1339C110.293 42.1217 110.178 42.0858 110.074 42.0283C109.97 41.9708 109.879 41.8929 109.806 41.7992C109.733 41.7055 109.679 41.598 109.648 41.4831L108.579 37.7909C108.544 37.6777 108.533 37.5587 108.545 37.4411C108.557 37.3234 108.593 37.2093 108.65 37.1056C108.707 37.002 108.784 36.9107 108.876 36.8373C108.969 36.764 109.075 36.7099 109.189 36.6784C109.302 36.6432 109.421 36.6312 109.538 36.6431C109.656 36.655 109.77 36.6906 109.874 36.7476C109.978 36.8047 110.07 36.8821 110.143 36.9753C110.217 37.0685 110.271 37.1755 110.302 37.29L111.376 40.9867Z" fill="#FFD3C6"/>
<path d="M108.711 38.7437C108.815 38.8019 108.905 38.8804 108.978 38.9745C109.05 39.0685 109.103 39.1762 109.133 39.2912C109.163 39.4062 109.17 39.526 109.153 39.6436C109.136 39.7612 109.095 39.8742 109.034 39.9759C108.976 40.0795 108.898 40.1703 108.804 40.2429C108.71 40.3156 108.603 40.3686 108.488 40.3988C108.373 40.429 108.254 40.4357 108.137 40.4187C108.02 40.4016 107.907 40.3611 107.806 40.2994L104.496 38.3536C104.393 38.2957 104.302 38.2175 104.229 38.1236C104.156 38.0297 104.103 37.9221 104.072 37.8071C104.042 37.6921 104.035 37.5721 104.051 37.4543C104.068 37.3365 104.108 37.2233 104.169 37.1214C104.291 36.9155 104.489 36.766 104.719 36.7054C104.95 36.6448 105.196 36.678 105.402 36.7978L108.711 38.7437Z" fill="#FFD3C6"/>
<path d="M108.278 40.3926C108.382 40.4508 108.472 40.5293 108.545 40.6234C108.617 40.7175 108.67 40.8252 108.7 40.9401C108.73 41.0551 108.737 41.1749 108.72 41.2926C108.703 41.4102 108.662 41.5232 108.601 41.6248C108.543 41.7284 108.465 41.8192 108.371 41.8919C108.277 41.9645 108.17 42.0175 108.055 42.0477C107.941 42.0779 107.821 42.0846 107.704 42.0676C107.587 42.0505 107.474 42.01 107.373 41.9484L104.063 40.007C103.96 39.9487 103.868 39.87 103.796 39.7756C103.723 39.6812 103.67 39.573 103.64 39.4575C103.609 39.3421 103.603 39.2217 103.62 39.1036C103.638 38.9855 103.679 38.8721 103.741 38.7703C103.799 38.6667 103.877 38.5759 103.971 38.5033C104.065 38.4306 104.172 38.3776 104.287 38.3474C104.401 38.3172 104.521 38.3105 104.638 38.3275C104.755 38.3446 104.868 38.3851 104.969 38.4468L108.278 40.3926Z" fill="#FFD3C6"/>
<path d="M107.85 42.042C107.953 42.1003 108.044 42.1788 108.116 42.2728C108.188 42.3669 108.241 42.4746 108.271 42.5895C108.301 42.7045 108.308 42.8244 108.291 42.942C108.274 43.0596 108.234 43.1726 108.172 43.2742C108.114 43.3778 108.036 43.4686 107.942 43.5413C107.848 43.6139 107.741 43.6669 107.627 43.6971C107.512 43.7273 107.392 43.7341 107.275 43.717C107.158 43.6999 107.045 43.6594 106.944 43.5978L103.63 41.652C103.527 41.5933 103.437 41.5145 103.365 41.4203C103.293 41.3261 103.241 41.2183 103.211 41.1034C103.182 40.9885 103.175 40.8687 103.193 40.7513C103.21 40.6339 103.251 40.5211 103.312 40.4197C103.37 40.3161 103.449 40.2253 103.542 40.1527C103.636 40.08 103.743 40.027 103.858 39.9968C103.973 39.9666 104.092 39.9599 104.209 39.977C104.327 39.994 104.439 40.0346 104.54 40.0962L107.85 42.042Z" fill="#FFD3C6"/>
<path d="M112.811 44.4435C113.086 45.0731 113.101 45.7864 112.852 46.4269C112.604 47.0675 112.113 47.5831 111.486 47.8609C110.858 48.1377 110.147 48.1531 109.508 47.9038C108.869 47.6544 108.355 47.1606 108.079 46.5311L106.511 42.9497C106.236 42.3207 106.222 41.6081 106.47 40.9683C106.719 40.3285 107.21 39.8136 107.836 39.5368C108.464 39.2599 109.175 39.2445 109.814 39.4939C110.453 39.7432 110.967 40.237 111.243 40.8665L112.811 44.4435Z" fill="#FFD3C6"/>
<path d="M116.39 22.1047C116.286 22.6378 116.342 23.1899 116.551 23.6913C116.759 24.1926 117.111 24.6207 117.562 24.9215C118.013 25.2222 118.543 25.3821 119.084 25.381C119.626 25.3798 120.155 25.2177 120.605 24.9151C121.054 24.6125 121.404 24.1829 121.611 23.6807C121.817 23.1785 121.871 22.6261 121.765 22.0934C121.658 21.5608 121.397 21.0716 121.014 20.6878C120.63 20.3041 120.142 20.0429 119.611 19.9372C119.258 19.8669 118.894 19.8673 118.541 19.9382C118.188 20.0092 117.852 20.1493 117.553 20.3506C117.253 20.552 116.997 20.8105 116.797 21.1115C116.598 21.4125 116.46 21.75 116.39 22.1047Z" fill="#FFD3C6"/>
<path d="M109.033 23C108.998 23.2111 108.991 23.4313 109.012 23.647C109.032 23.8627 109.081 24.0694 109.154 24.2542C109.227 24.4389 109.323 24.5979 109.437 24.7212C109.55 24.8445 109.678 24.9295 109.813 24.971C109.948 25.0124 110.087 25.0095 110.221 24.9622C110.355 24.915 110.482 24.8246 110.593 24.6965C110.704 24.5684 110.798 24.4053 110.868 24.2175C110.938 24.0297 110.983 23.821 111 23.6045L109.033 23Z" fill="#ED6B7B"/>
<path d="M112.293 19.9132C112.59 19.7744 112.928 19.7511 113.242 19.8477C113.555 19.9443 113.821 20.154 113.99 20.4362" stroke="#064182" stroke-width="1.3" stroke-linecap="round" stroke-linejoin="round"/>
<path d="M107 19.2624C107.263 19.0662 107.589 18.9749 107.916 19.006C108.242 19.0371 108.546 19.1884 108.767 19.4308" stroke="#064182" stroke-width="1.3" stroke-linecap="round" stroke-linejoin="round"/>
<path d="M129.778 64.5987C129.778 64.5987 123.274 70.9371 116.412 62.1121C116.412 62.1121 110.227 54.5061 106.25 45.096L113.032 39.9189L128.616 57.8393C128.616 57.8393 130.599 63.9871 129.778 64.5987Z" fill="#2FA1BC"/>
<path d="M126.442 9.52494C126.413 10.6158 126.062 11.6735 125.433 12.5643C124.805 13.4551 123.928 14.139 122.912 14.5296C121.896 14.9202 120.788 14.9999 119.727 14.7586C118.666 14.5173 117.7 13.9659 116.952 13.1741C116.203 12.3823 115.706 11.3856 115.522 10.3101C115.338 9.23451 115.476 8.12838 115.918 7.13152C116.361 6.13466 117.088 5.29183 118.008 4.70956C118.928 4.1273 120 3.83175 121.087 3.86029C121.809 3.87924 122.521 4.04082 123.181 4.3358C123.841 4.63079 124.437 5.05339 124.934 5.57945C125.432 6.10551 125.821 6.72473 126.079 7.40172C126.338 8.0787 126.461 8.80019 126.442 9.52494Z" fill="#064182"/>
</g>
<defs>
<radialGradient id="paint0_radial_322:8698" cx="0" cy="0" r="1" gradientUnits="userSpaceOnUse" gradientTransform="translate(82.14 51.1034) scale(16.4094 17.1205)">
<stop stop-color="#60B3E3"/>
<stop offset="1" stop-color="#80CFF1" stop-opacity="0"/>
</radialGradient>
<radialGradient id="paint1_radial_322:8698" cx="0" cy="0" r="1" gradientUnits="userSpaceOnUse" gradientTransform="translate(-23213.3 15545.8) rotate(180) scale(545.111 1157.87)">
<stop stop-color="#60B3E3"/>
<stop offset="1" stop-color="#80CFF1" stop-opacity="0"/>
</radialGradient>
<radialGradient id="paint2_radial_322:8698" cx="0" cy="0" r="1" gradientUnits="userSpaceOnUse" gradientTransform="translate(-23856.5 15810.5) rotate(180) scale(469.245 996.722)">
<stop stop-color="#60B3E3"/>
<stop offset="1" stop-color="#80CFF1" stop-opacity="0"/>
</radialGradient>
<radialGradient id="paint3_radial_322:8698" cx="0" cy="0" r="1" gradientUnits="userSpaceOnUse" gradientTransform="translate(1888.95 7160.44) scale(427.582 2152.55)">
<stop stop-color="#60B3E3"/>
<stop offset="1" stop-color="#80CFF1" stop-opacity="0"/>
</radialGradient>
<radialGradient id="paint4_radial_322:8698" cx="0" cy="0" r="1" gradientUnits="userSpaceOnUse" gradientTransform="translate(85.8739 44.2677) rotate(10.2521) scale(13.7024 13.7436)">
<stop stop-color="#1586A6"/>
<stop offset="1" stop-color="#2FA1BC"/>
</radialGradient>
<radialGradient id="paint5_radial_322:8698" cx="0" cy="0" r="1" gradientUnits="userSpaceOnUse" gradientTransform="translate(5066.58 21688.3) scale(583.644 2319.05)">
<stop stop-color="#1586A6"/>
<stop offset="1" stop-color="#2FA1BC"/>
</radialGradient>
<radialGradient id="paint6_radial_322:8698" cx="0" cy="0" r="1" gradientUnits="userSpaceOnUse" gradientTransform="translate(5034.9 16099.9) scale(231.392 721.565)">
<stop stop-color="#1586A6"/>
<stop offset="1" stop-color="#2FA1BC"/>
</radialGradient>
<clipPath id="clip0_322:8698">
<rect width="132" height="146" fill="white"/>
</clipPath>
</defs>
</svg>
